<?xml version="1.0" ?>
<svg xmlns="http://www.w3.org/2000/svg" xmlns:ev="http://www.w3.org/2001/xml-events" xmlns:inkscape="http://www.inkscape.org/namespaces/inkscape" xmlns:sodipodi="http://sodipodi.sourceforge.net/DTD/sodipodi-0.dtd" xmlns:svg="http://www.w3.org/2000/svg" xmlns:xlink="http://www.w3.org/1999/xlink" baseProfile="full" height="52.4986mm" id="svg9" inkscape:version="1.2.1 (9c6d41e410, 2022-07-14)" sodipodi:docname="brainCut_red.svg" version="1.1" viewBox="0 0 64.9984 52.4986" width="64.9984mm">
	<defs/>
	<path d="M 46.469322204589844,36.898597717285156 L 46.79999923706055,37.21836853027344 L 47.107948303222656,36.898597717285156 L 46.79999923706055,36.51509475708008 L 46.469322204589844,36.898597717285156" fill="none" stroke="#000000" stroke-width="0.06210252380371094"/>
	<path d="M 41.875701904296875,34.498600006103516 L 42.0,34.746665954589844 L 42.11679458618164,34.49860382080078 L 42.0,34.247711181640625 L 41.875701904296875,34.498600006103516" fill="none" stroke="#000000" stroke-width="0.06210252380371094"/>
	<path d="M 44.505638122558594,47.29859924316406 L 45.20000076293945,47.74879455566406 L 45.84810256958008,47.29859924316406 L 46.0,46.50659942626953 L 46.007999420166016,46.498600006103516 L 46.0,46.4906005859375 L 45.20000076293945,46.110374450683594 L 44.7680549621582,46.498600006103516 L 44.505638122558594,47.29859924316406" fill="none" stroke="#000000" stroke-width="0.06210252380371094"/>
	<path d="M 47.39795684814453,47.29859924316406 L 47.60000228881836,47.50967788696289 L 48.400001525878906,47.69581985473633 L 48.87085723876953,47.29859924316406 L 49.036338806152344,46.498600006103516 L 49.046592712402344,45.69860076904297 L 48.400001525878906,45.07298278808594 L 47.60000228881836,45.6462287902832 L 47.56085205078125,45.69860076904297 L 47.4830436706543,46.498600006103516 L 47.39795684814453,47.29859924316406" fill="none" stroke="#000000" stroke-width="0.06210252380371094"/>
	<path d="M 36.48515701293945,48.09859848022461 L 37.20000076293945,48.408042907714844 L 38.0,48.45795440673828 L 38.27791976928711,48.09859848022461 L 38.384952545166016,47.29859924316406 L 38.0,46.82719802856445 L 37.20000076293945,46.72821044921875 L 36.400001525878906,46.716373443603516 L 35.60000228881836,46.773345947265625 L 35.16828536987305,47.29859924316406 L 35.60000228881836,47.70603561401367 L 36.400001525878906,48.05938720703125 L 36.48515701293945,48.09859848022461" fill="none" stroke="#000000" stroke-width="0.06210252380371094"/>
	<path d="M 54.741485595703125,23.298601150512695 L 54.79999923706055,23.346187591552734 L 55.600006103515625,23.60287857055664 L 56.400001525878906,23.599306106567383 L 57.06219482421875,23.298599243164062 L 57.20000457763672,23.21712303161621 L 57.88279724121094,22.498600006103516 L 58.0,22.344873428344727 L 58.393314361572266,21.69860076904297 L 58.65007781982422,20.89859962463379 L 58.72697448730469,20.09859848022461 L 58.59522247314453,19.298599243164062 L 58.0,18.90363311767578 L 57.67409133911133,19.298599243164062 L 57.410194396972656,20.09859848022461 L 57.20000076293945,20.478473663330078 L 56.92890930175781,20.89859962463379 L 56.400001525878906,21.52663230895996 L 56.12679672241211,21.69860076904297 L 55.599998474121094,21.94887924194336 L 54.80000305175781,22.00245475769043 L 54.0,22.04945945739746 L 53.60052490234375,22.498600006103516 L 54.0,22.905298233032227 L 54.741485595703125,23.298601150512695" fill="none" stroke="#000000" stroke-width="0.06210252380371094"/>
	<path d="M 9.323722839355469,16.09859848022461 L 10.0,16.59524154663086 L 10.397616386413574,16.09859848022461 L 10.15782356262207,15.298599243164062 L 10.0,15.073501586914062 L 9.678901672363281,14.498600006103516 L 9.284168243408203,13.698600769042969 L 9.19999885559082,13.58218765258789 L 8.755507469177246,12.898597717285156 L 8.399999618530273,12.396484375 L 8.1580171585083,12.09859848022461 L 7.600000381469727,11.391613006591797 L 7.516351222991943,11.298599243164062 L 6.800000190734863,10.534568786621094 L 6.0,10.841785430908203 L 5.493546962738037,11.298599243164062 L 5.922542095184326,12.09859848022461 L 6.0,12.199508666992188 L 6.62540864944458,12.898597717285156 L 6.800000190734863,13.073348999023438 L 7.350365161895752,13.698600769042969 L 7.600000381469727,13.962955474853516 L 8.028863906860352,14.498600006103516 L 8.399999618530273,14.929683685302734 L 8.68855094909668,15.298599243164062 L 9.19999885559082,15.966976165771484 L 9.323722839355469,16.09859848022461" fill="none" stroke="#000000" stroke-width="0.06210252380371094"/>
	<path d="M 49.62506866455078,11.298599243164062 L 50.0,11.499629974365234 L 50.79999923706055,11.69045639038086 L 51.600006103515625,11.705429077148438 L 52.133338928222656,11.298599243164062 L 51.60000228881836,10.797721862792969 L 51.12080383300781,10.498600006103516 L 50.79999542236328,10.268684387207031 L 50.0,9.729938507080078 L 49.96453857421875,9.698600769042969 L 49.20000076293945,8.955673217773438 L 49.145206451416016,8.898597717285156 L 48.400001525878906,8.146930694580078 L 48.354312896728516,8.09859848022461 L 47.60000228881836,7.513530731201172 L 47.383541107177734,7.2985992431640625 L 46.79999542236328,6.908565521240234 L 46.40050506591797,7.2985992431640625 L 46.60728073120117,8.09859848022461 L 46.79999923706055,8.38808822631836 L 47.14668273925781,8.89859390258789 L 47.60000228881836,9.642520904541016 L 47.64666748046875,9.698600769042969 L 48.353759765625,10.498600006103516 L 48.400001525878906,10.539657592773438 L 49.20000076293945,11.051883697509766 L 49.62506866455078,11.298599243164062" fill="none" stroke="#000000" stroke-width="0.06210252380371094"/>
	<path d="M 51.38258361816406,20.898597717285156 L 51.60000228881836,20.975215911865234 L 52.400001525878906,21.051965713500977 L 53.20000076293945,20.90660285949707 L 53.21110534667969,20.898597717285156 L 54.0,20.621488571166992 L 54.79999923706055,20.409019470214844 L 55.33928680419922,20.09859848022461 L 55.600006103515625,19.902950286865234 L 56.11844253540039,19.298599243164062 L 56.400001525878906,18.945667266845703 L 56.70367431640625,18.498600006103516 L 57.079673767089844,17.69860076904297 L 57.20000076293945,17.479122161865234 L 57.45548629760742,16.898601531982422 L 57.644264221191406,16.09859848022461 L 57.20000076293945,15.676204681396484 L 56.62028884887695,16.09859848022461 L 56.400001525878906,16.373828887939453 L 55.99273681640625,16.898597717285156 L 55.60000228881836,17.446552276611328 L 55.35188293457031,17.69860076904297 L 54.79999542236328,18.24570083618164 L 54.42913055419922,18.498600006103516 L 54.0,18.767078399658203 L 53.20000457763672,19.05565643310547 L 52.59422302246094,19.298599243164062 L 52.400001525878906,19.382373809814453 L 51.60000228881836,19.62850570678711 L 50.79999923706055,19.766342163085938 L 50.38035202026367,20.09859848022461 L 50.79999542236328,20.668649673461914 L 51.38258361816406,20.898597717285156" fill="none" stroke="#000000" stroke-width="0.06210252380371094"/>
	<path d="M 50.95725631713867,46.498600006103516 L 51.60000228881836,47.076080322265625 L 52.041709899902344,46.498600006103516 L 52.31063461303711,45.69860076904297 L 52.400001525878906,45.550071716308594 L 52.72990417480469,44.898597717285156 L 52.98828125,44.098602294921875 L 53.20000076293945,43.543304443359375 L 53.30250549316406,43.29859924316406 L 53.51734924316406,42.498600006103516 L 53.67235565185547,41.69860076904297 L 53.90073013305664,40.898597717285156 L 54.0,40.67451477050781 L 54.232398986816406,40.098602294921875 L 54.44813919067383,39.29859924316406 L 54.65840530395508,38.498600006103516 L 54.79999542236328,37.9847297668457 L 54.89288330078125,37.69860076904297 L 54.79999923706055,37.59403991699219 L 54.0,37.37164306640625 L 53.569828033447266,37.69860076904297 L 53.20000457763672,38.22484588623047 L 52.98299789428711,38.498600006103516 L 52.73207092285156,39.29859924316406 L 52.673789978027344,40.098602294921875 L 52.515907287597656,40.898597717285156 L 52.400001525878906,41.12975311279297 L 52.157222747802734,41.69860076904297 L 51.76866912841797,42.498600006103516 L 51.60000228881836,42.8928108215332 L 51.42654037475586,43.29859924316406 L 51.24516296386719,44.098602294921875 L 51.076515197753906,44.898597717285156 L 50.94179916381836,45.69860076904297 L 50.95725631713867,46.498600006103516" fill="none" stroke="#000000" stroke-width="0.06210252380371094"/>
	<path d="M 45.251319885253906,14.498600006103516 L 46.0,14.77642822265625 L 46.79999923706055,14.780517578125 L 47.60000228881836,14.606002807617188 L 47.774742126464844,14.498600006103516 L 48.400001525878906,14.214897155761719 L 48.96586608886719,13.698600769042969 L 48.400001525878906,13.29727554321289 L 47.60000228881836,13.250858306884766 L 46.79999923706055,13.112049102783203 L 46.33734893798828,12.898597717285156 L 46.0,12.716011047363281 L 45.20000076293945,12.127372741699219 L 45.17229080200195,12.09859848022461 L 44.540889739990234,11.298599243164062 L 44.400001525878906,11.070083618164062 L 44.11265182495117,10.498600006103516 L 43.96704864501953,9.698604583740234 L 43.909088134765625,8.898597717285156 L 43.828041076660156,8.09859848022461 L 43.60000228881836,7.540798187255859 L 43.46595001220703,7.2985992431640625 L 42.79999923706055,6.928623199462891 L 42.428077697753906,7.2985992431640625 L 42.44342041015625,8.09859848022461 L 42.43787384033203,8.898597717285156 L 42.441009521484375,9.698600769042969 L 42.49604797363281,10.498600006103516 L 42.729183197021484,11.298595428466797 L 42.79999923706055,11.408653259277344 L 43.162322998046875,12.09859848022461 L 43.60000228881836,12.789081573486328 L 43.69131851196289,12.89859390258789 L 44.26799011230469,13.698600769042969 L 44.400001525878906,13.85483169555664 L 45.20000076293945,14.475566864013672 L 45.251319885253906,14.498600006103516" fill="none" stroke="#000000" stroke-width="0.06210252380371094"/>
	<path d="M 11.24773120880127,19.298599243164062 L 11.600000381469727,19.596633911132812 L 12.399999618530273,19.669391632080078 L 12.867263793945312,19.298599243164062 L 12.856998443603516,18.498600006103516 L 12.837400436401367,17.69860076904297 L 12.816551208496094,16.898597717285156 L 12.792606353759766,16.09859848022461 L 12.730897903442383,15.298599243164062 L 12.623703956604004,14.498600006103516 L 12.399999618530273,13.706600189208984 L 12.392000198364258,13.698600769042969 L 12.131659507751465,12.898597717285156 L 11.900003433227539,12.09859848022461 L 11.600000381469727,11.405120849609375 L 11.541845321655273,11.298599243164062 L 11.19416618347168,10.498600006103516 L 10.799999237060547,9.72610855102539 L 10.781938552856445,9.698600769042969 L 10.334236145019531,8.89859390258789 L 10.0,8.432510375976562 L 9.19999885559082,8.458660125732422 L 8.724703788757324,8.898597717285156 L 8.784551620483398,9.698600769042969 L 9.19999885559082,10.42281723022461 L 9.250951766967773,10.498600006103516 L 9.687132835388184,11.298599243164062 L 10.0,11.829082489013672 L 10.161097526550293,12.09859848022461 L 10.502403259277344,12.898597717285156 L 10.799999237060547,13.542583465576172 L 10.884965896606445,13.698600769042969 L 11.144718170166016,14.498600006103516 L 11.264446258544922,15.298599243164062 L 11.291215896606445,16.09859848022461 L 11.072393417358398,16.898597717285156 L 11.089462280273438,17.69860076904297 L 11.181585311889648,18.498600006103516 L 11.24773120880127,19.298599243164062" fill="none" stroke="#000000" stroke-width="0.06210252380371094"/>
	<path d="M 23.400869369506836,19.298599243164062 L 23.600000381469727,19.612777709960938 L 24.399999618530273,19.76156997680664 L 25.085586547851562,19.298599243164062 L 25.106767654418945,18.498600006103516 L 25.07781410217285,17.69860076904297 L 25.020919799804688,16.898597717285156 L 24.958698272705078,16.09859848022461 L 24.89392852783203,15.298599243164062 L 24.830636978149414,14.498600006103516 L 24.753324508666992,13.698596954345703 L 24.684663772583008,12.898597717285156 L 24.59833335876465,12.09859848022461 L 24.49220848083496,11.298603057861328 L 24.399999618530273,10.810993194580078 L 24.33840560913086,10.498600006103516 L 24.220483779907227,9.698604583740234 L 24.129600524902344,8.898597717285156 L 24.048194885253906,8.09859848022461 L 23.969106674194336,7.2985992431640625 L 23.88628578186035,6.498600006103516 L 23.79062271118164,5.698600769042969 L 23.675716400146484,4.898593902587891 L 23.600000381469727,4.470340728759766 L 23.532854080200195,4.098598480224609 L 22.80000114440918,3.69189453125 L 22.0,3.9453887939453125 L 21.841569900512695,4.098598480224609 L 21.95588493347168,4.898601531982422 L 22.0,5.095249176025391 L 22.123380661010742,5.698600769042969 L 22.254350662231445,6.498600006103516 L 22.360742568969727,7.2985992431640625 L 22.458433151245117,8.09859848022461 L 22.5606632232666,8.898597717285156 L 22.681049346923828,9.698600769042969 L 22.80000114440918,10.347980499267578 L 22.830827713012695,10.498600006103516 L 22.970680236816406,11.298599243164062 L 23.067007064819336,12.09859848022461 L 23.14504051208496,12.898597717285156 L 23.211278915405273,13.698600769042969 L 23.277099609375,14.498600006103516 L 23.33294677734375,15.298599243164062 L 23.384937286376953,16.09859848022461 L 23.417701721191406,16.898597717285156 L 23.44182777404785,17.69860076904297 L 23.4327335357666,18.498600006103516 L 23.400869369506836,19.298599243164062" fill="none" stroke="#000000" stroke-width="0.06210252380371094"/>
	<path d="M 37.9229736328125,19.298599243164062 L 38.0,19.34665298461914 L 38.79999923706055,19.652423858642578 L 39.60000228881836,19.785247802734375 L 39.84225845336914,19.298595428466797 L 39.60000228881836,19.055782318115234 L 39.13454818725586,18.498600006103516 L 38.79999923706055,18.04140853881836 L 38.54362487792969,17.69860076904297 L 38.334938049316406,16.898597717285156 L 38.23853302001953,16.09859848022461 L 38.11387634277344,15.298599243164062 L 38.0,14.938644409179688 L 37.86627960205078,14.498600006103516 L 37.65099334716797,13.698600769042969 L 37.441322326660156,12.89859390258789 L 37.20000076293945,12.16592025756836 L 37.17141342163086,12.09859848022461 L 36.92728805541992,11.298599243164062 L 36.77653503417969,10.498600006103516 L 36.577449798583984,9.698600769042969 L 36.400001525878906,9.309383392333984 L 36.202064514160156,8.898597717285156 L 35.708160400390625,8.098594665527344 L 35.60000228881836,7.994354248046875 L 34.91997146606445,7.2985992431640625 L 34.79999923706055,7.172401428222656 L 34.0,6.924594879150391 L 33.66909408569336,7.2985992431640625 L 34.0,8.011913299560547 L 34.059791564941406,8.09859848022461 L 34.4318733215332,8.898597717285156 L 34.79999542236328,9.677566528320312 L 34.81352996826172,9.698596954345703 L 35.13230895996094,10.498600006103516 L 35.3431396484375,11.298599243164062 L 35.59199523925781,12.09859848022461 L 35.60000228881836,12.118263244628906 L 35.84320831298828,12.898597717285156 L 36.03837203979492,13.698600769042969 L 36.2578125,14.498600006103516 L 36.400001525878906,14.892013549804688 L 36.544456481933594,15.298599243164062 L 36.70353698730469,16.09859848022461 L 36.772884368896484,16.898597717285156 L 36.69824981689453,17.69860076904297 L 36.79607009887695,18.498600006103516 L 37.20000076293945,18.791339874267578 L 37.9229736328125,19.298599243164062" fill="none" stroke="#000000" stroke-width="0.06210252380371094"/>
	<path d="M 29.826457977294922,20.898597717285156 L 30.0,21.03285789489746 L 30.799999237060547,21.303857803344727 L 31.396800994873047,20.898595809936523 L 30.86199951171875,20.09859848022461 L 30.799999237060547,20.03439712524414 L 30.0,19.306598663330078 L 29.992000579833984,19.298599243164062 L 29.26125717163086,18.498600006103516 L 29.200000762939453,18.417285919189453 L 28.755434036254883,17.69860076904297 L 28.4434757232666,16.89859390258789 L 28.399999618530273,16.783531188964844 L 28.18813133239746,16.09859848022461 L 28.043222427368164,15.298599243164062 L 27.93467140197754,14.498600006103516 L 27.82975959777832,13.698600769042969 L 27.706174850463867,12.898601531982422 L 27.600000381469727,12.39626693725586 L 27.533592224121094,12.09859848022461 L 27.403587341308594,11.298599243164062 L 27.313241958618164,10.498600006103516 L 27.238508224487305,9.698600769042969 L 27.184614181518555,8.898597717285156 L 27.143259048461914,8.09859848022461 L 27.122591018676758,7.2985992431640625 L 27.110769271850586,6.498600006103516 L 27.074344635009766,5.698600769042969 L 26.992883682250977,4.898593902587891 L 26.845172882080078,4.098598480224609 L 26.80000114440918,3.9817123413085938 L 26.588563919067383,3.2985992431640625 L 26.0,2.896137237548828 L 25.200002670288086,3.158031463623047 L 25.070280075073242,3.2985992431640625 L 25.191999435424805,4.098598480224609 L 25.200000762939453,4.118255615234375 L 25.32979393005371,4.898597717285156 L 25.425649642944336,5.698600769042969 L 25.496456146240234,6.498600006103516 L 25.555604934692383,7.2985992431640625 L 25.61356544494629,8.09859848022461 L 25.67057991027832,8.898597717285156 L 25.740047454833984,9.698600769042969 L 25.823755264282227,10.498600006103516 L 25.960384368896484,11.298599243164062 L 26.0,11.514278411865234 L 26.098934173583984,12.09859848022461 L 26.20301628112793,12.898597717285156 L 26.29326629638672,13.698604583740234 L 26.375234603881836,14.498600006103516 L 26.456146240234375,15.298599243164062 L 26.546110153198242,16.09859848022461 L 26.652271270751953,16.898597717285156 L 26.80000114440918,17.53853988647461 L 26.84296989440918,17.69860076904297 L 27.069299697875977,18.498600006103516 L 27.507875442504883,19.298599243164062 L 27.600000381469727,19.38001251220703 L 28.39999771118164,19.95773696899414 L 28.567440032958984,20.09859848022461 L 29.200000762939453,20.49459457397461 L 29.826457977294922,20.898597717285156" fill="none" stroke="#000000" stroke-width="0.06210252380371094"/>
	<path d="M 44.30098342895508,44.898597717285156 L 44.400001525878906,44.970680236816406 L 45.20000076293945,44.98064422607422 L 45.30618667602539,44.898597717285156 L 45.860618591308594,44.098602294921875 L 46.0,43.3917236328125 L 46.79999923706055,43.49810028076172 L 47.44032287597656,44.098602294921875 L 47.60000228881836,44.255348205566406 L 48.400001525878906,44.697879791259766 L 49.20000076293945,44.49824905395508 L 49.55332946777344,44.098602294921875 L 49.59634780883789,43.29859924316406 L 49.3740119934082,42.498600006103516 L 50.0,41.766536712646484 L 50.11741638183594,41.69860076904297 L 50.79999923706055,41.348480224609375 L 51.3299560546875,40.898597717285156 L 51.554630279541016,40.098602294921875 L 50.83914566040039,39.29859924316406 L 50.93849182128906,38.498600006103516 L 50.98080062866211,37.69860076904297 L 50.79999542236328,37.442508697509766 L 50.0,37.01945114135742 L 49.87461853027344,36.898597717285156 L 50.0,36.41981506347656 L 50.07604217529297,36.098602294921875 L 50.0,35.933807373046875 L 49.60078430175781,35.29859924316406 L 49.20000457763672,35.02709197998047 L 48.400001525878906,35.13485336303711 L 47.924652099609375,34.498600006103516 L 47.930702209472656,33.69860076904297 L 47.76411437988281,32.898597717285156 L 47.60000228881836,32.718544006347656 L 46.79999923706055,32.34123229980469 L 46.0,32.68211364746094 L 45.341121673583984,32.098602294921875 L 45.319602966308594,31.298599243164062 L 45.20000076293945,31.094314575195312 L 44.400001525878906,30.599163055419922 L 43.599998474121094,31.16016960144043 L 43.19414520263672,31.298599243164062 L 42.79999923706055,31.427236557006836 L 42.0,31.591463088989258 L 41.652862548828125,32.098602294921875 L 41.457828521728516,32.898597717285156 L 41.20000076293945,33.26557922363281 L 40.88288116455078,32.898597717285156 L 40.400001525878906,32.56441879272461 L 39.60000228881836,32.50679016113281 L 39.23413848876953,32.898597717285156 L 39.222068786621094,33.69860076904297 L 38.989192962646484,34.498600006103516 L 38.79999923706055,34.55058670043945 L 38.1992301940918,34.498600006103516 L 38.0,34.483367919921875 L 37.98127746582031,34.498600006103516 L 37.4156608581543,35.29859924316406 L 37.448612213134766,36.098602294921875 L 38.0,36.88548278808594 L 38.019195556640625,36.898597717285156 L 38.0,36.96347427368164 L 37.85866165161133,37.69860076904297 L 37.35721206665039,38.498600006103516 L 37.62702941894531,39.29859924316406 L 37.864498138427734,40.098602294921875 L 38.0,40.532474517822266 L 38.13227081298828,40.898597717285156 L 38.67346954345703,41.69860076904297 L 38.79999923706055,41.84776306152344 L 39.49640655517578,42.498600006103516 L 39.60000228881836,42.56507110595703 L 40.400001525878906,42.78826904296875 L 40.913673400878906,43.29859924316406 L 41.20000076293945,43.44559097290039 L 41.618385314941406,43.29859924316406 L 42.0,43.08302307128906 L 42.79999923706055,42.7160530090332 L 43.18116760253906,43.29859924316406 L 43.5859375,44.098602294921875 L 43.60000228881836,44.118408203125 L 44.30098342895508,44.898597717285156" fill="none" stroke="#000000" stroke-width="0.06210252380371094"/>
	<path d="M 61.69226837158203,32.098602294921875 L 62.0,32.2861328125 L 62.279624938964844,32.098602294921875 L 62.36116027832031,31.298599243164062 L 62.0,30.671630859375 L 61.823829650878906,30.498600006103516 L 61.20000076293945,30.076467514038086 L 60.400001525878906,29.78936004638672 L 60.303009033203125,29.698598861694336 L 60.400001525878906,29.46834373474121 L 60.65860366821289,28.89859962463379 L 61.20000457763672,28.46867561340332 L 61.591182708740234,28.098600387573242 L 62.0,27.455331802368164 L 62.230628967285156,27.298599243164062 L 62.0,27.123882293701172 L 61.336669921875,26.498600006103516 L 61.20000076293945,26.420440673828125 L 61.10734176635742,26.498600006103516 L 60.400001525878906,27.199487686157227 L 60.30481719970703,27.298599243164062 L 59.60000228881836,28.02113914489746 L 59.5079231262207,28.098600387573242 L 58.80000305175781,28.596311569213867 L 58.0,28.784814834594727 L 57.20000457763672,28.807920455932617 L 56.400001525878906,28.693965911865234 L 55.600006103515625,28.524316787719727 L 54.79999542236328,28.213008880615234 L 54.647464752197266,28.098600387573242 L 54.0,27.688884735107422 L 53.4696044921875,27.29859733581543 L 53.20000076293945,27.082433700561523 L 52.400001525878906,26.58601951599121 L 52.28084945678711,26.498600006103516 L 51.60000228881836,26.106435775756836 L 50.79999923706055,25.783899307250977 L 50.600765228271484,25.698598861694336 L 50.000003814697266,25.475696563720703 L 49.20000076293945,25.3236141204834 L 48.400001525878906,25.20020866394043 L 47.60000228881836,25.050125122070312 L 46.822147369384766,24.89859962463379 L 46.79999923706055,24.89059829711914 L 46.0,24.831953048706055 L 45.727210998535156,24.89859962463379 L 45.20000076293945,25.03888511657715 L 44.400001525878906,25.63673973083496 L 44.34937286376953,25.698598861694336 L 43.87659454345703,26.498598098754883 L 43.60000228881836,27.072935104370117 L 43.48953628540039,27.298599243164062 L 43.292091369628906,28.098600387573242 L 43.19297409057617,28.89859962463379 L 43.15637969970703,29.698598861694336 L 43.60000228881836,30.141300201416016 L 44.23085021972656,29.698598861694336 L 44.400001525878906,29.419706344604492 L 44.660316467285156,28.89859962463379 L 44.98295974731445,28.098600387573242 L 45.20000076293945,27.765085220336914 L 45.709068298339844,27.298599243164062 L 46.000003814697266,27.089847564697266 L 46.79999923706055,26.881895065307617 L 47.60000228881836,26.87755584716797 L 48.400001525878906,26.90794563293457 L 49.19999694824219,26.998722076416016 L 50.0,27.104475021362305 L 50.51500701904297,27.298599243164062 L 50.80000305175781,27.41622543334961 L 51.60000228881836,27.74962615966797 L 52.13441467285156,28.098600387573242 L 52.400001525878906,28.295093536376953 L 53.19999694824219,28.830842971801758 L 53.283267974853516,28.89859962463379 L 54.0,29.360857009887695 L 54.652854919433594,29.698598861694336 L 54.79999923706055,29.789472579956055 L 55.60000228881836,30.044557571411133 L 56.400001525878906,30.171998977661133 L 57.19999694824219,30.267009735107422 L 58.0,30.36835289001465 L 58.527557373046875,30.498600006103516 L 58.79999923706055,30.572492599487305 L 59.60000228881836,30.86435890197754 L 60.36235809326172,31.298599243164062 L 60.400001525878906,31.32573127746582 L 61.20000076293945,31.807308197021484 L 61.69226837158203,32.098602294921875" fill="none" stroke="#000000" stroke-width="0.06210252380371094"/>
	<path d="M 52.34624099731445,36.098602294921875 L 52.400001525878906,36.12386703491211 L 53.20000076293945,36.13776397705078 L 53.38117599487305,36.098602294921875 L 54.0,35.977699279785156 L 54.79999923706055,35.80046081542969 L 55.54620361328125,35.29859924316406 L 55.60000228881836,35.25735092163086 L 56.400001525878906,34.570281982421875 L 56.50310516357422,34.498600006103516 L 56.400001525878906,33.90959930419922 L 55.60000228881836,34.096168518066406 L 54.79999923706055,34.20722198486328 L 54.0,34.35645294189453 L 53.20000457763672,34.348419189453125 L 52.400001525878906,34.084434509277344 L 51.95571517944336,33.69860076904297 L 51.60000228881836,33.358978271484375 L 51.229393005371094,32.898597717285156 L 50.79999923706055,32.388465881347656 L 50.567501068115234,32.098602294921875 L 50.0,31.50835418701172 L 49.75904846191406,31.298599243164062 L 49.38079071044922,30.498600006103516 L 50.0,30.285818099975586 L 50.44678497314453,30.498600006103516 L 50.79999923706055,30.677820205688477 L 51.60000228881836,31.232437133789062 L 51.67238235473633,31.298599243164062 L 52.400001525878906,31.961130142211914 L 52.575801849365234,32.098602294921875 L 53.19999694824219,32.52278137207031 L 54.0,32.773921966552734 L 54.625545501708984,32.898597717285156 L 54.79999923706055,32.93724822998047 L 55.600006103515625,33.12443542480469 L 56.40000534057617,33.6701545715332 L 56.48917770385742,33.69860076904297 L 57.20000457763672,33.93619918823242 L 58.0,34.0327033996582 L 58.79999542236328,34.18708801269531 L 59.600006103515625,34.33027648925781 L 60.400001525878906,34.483177185058594 L 60.47772216796875,34.498600006103516 L 61.20000076293945,34.623512268066406 L 62.0,34.669639587402344 L 62.361610412597656,34.498600006103516 L 62.411930084228516,33.69860076904297 L 61.999996185302734,33.55585861206055 L 61.20000076293945,33.332767486572266 L 60.400001525878906,33.082847595214844 L 60.046531677246094,32.898597717285156 L 59.60000228881836,32.65807342529297 L 58.79999542236328,32.36652374267578 L 58.07306671142578,32.098602294921875 L 58.0,32.06682205200195 L 57.19999694824219,31.862735748291016 L 56.400001525878906,31.71613121032715 L 55.599998474121094,31.58324432373047 L 54.80000305175781,31.37966537475586 L 54.613365173339844,31.298599243164062 L 53.999996185302734,31.062744140625 L 53.20000076293945,30.66303825378418 L 52.99513244628906,30.498600006103516 L 52.400001525878906,30.071237564086914 L 51.90459442138672,29.698598861694336 L 51.600006103515625,29.46233367919922 L 50.79999542236328,29.09123420715332 L 50.27825927734375,28.89859962463379 L 50.000003814697266,28.785932540893555 L 49.20000076293945,28.679283142089844 L 48.400001525878906,28.66530418395996 L 47.60000228881836,28.732210159301758 L 47.09381866455078,28.89859962463379 L 46.80000305175781,28.99930191040039 L 46.0,29.4713191986084 L 45.799461364746094,29.698598861694336 L 45.47552490234375,30.498600006103516 L 46.0,30.893693923950195 L 46.79999923706055,30.78282356262207 L 47.60000228881836,30.691247940063477 L 48.400001525878906,30.81844139099121 L 48.65359878540039,31.298601150512695 L 49.07755661010742,32.098602294921875 L 49.19999694824219,32.284942626953125 L 49.535980224609375,32.898597717285156 L 50.0,33.66175079345703 L 50.02954864501953,33.69860076904297 L 50.65602493286133,34.498600006103516 L 50.79999923706055,34.674842834472656 L 51.273643493652344,35.29859924316406 L 51.600006103515625,35.74794006347656 L 52.34624099731445,36.098602294921875" fill="none" stroke="#000000" stroke-width="0.06210252380371094"/>
	<path d="M 39.87972640991211,31.29859733581543 L 40.400001525878906,31.79099464416504 L 40.798458099365234,31.298599243164062 L 41.20000076293945,30.677766799926758 L 41.384464263916016,30.49860191345215 L 41.588470458984375,29.698598861694336 L 41.656494140625,28.89859962463379 L 41.731178283691406,28.098600387573242 L 41.85441970825195,27.298599243164062 L 42.0,26.849531173706055 L 42.11838150024414,26.498600006103516 L 42.416473388671875,25.698598861694336 L 42.79999923706055,24.92832374572754 L 42.81996154785156,24.89859962463379 L 43.28158950805664,24.098600387573242 L 43.60000228881836,23.711252212524414 L 44.11900329589844,23.298599243164062 L 44.400001525878906,23.116172790527344 L 45.20000076293945,22.944673538208008 L 46.0,22.947866439819336 L 46.79999542236328,23.050561904907227 L 47.60000228881836,23.238859176635742 L 47.77345657348633,23.298599243164062 L 48.400001525878906,23.48921012878418 L 49.20000076293945,23.643413543701172 L 50.0,23.82978057861328 L 50.706817626953125,24.098600387573242 L 50.79999923706055,24.14142417907715 L 51.60000228881836,24.496248245239258 L 52.30769348144531,24.89859962463379 L 52.400001525878906,24.965133666992188 L 53.19999694824219,25.427000045776367 L 53.56397247314453,25.698598861694336 L 54.0,26.022966384887695 L 54.7474250793457,26.498600006103516 L 54.79999923706055,26.54152488708496 L 55.60000228881836,26.92947006225586 L 56.400001525878906,27.135744094848633 L 57.19999694824219,27.17806053161621 L 58.0,26.982524871826172 L 58.75554656982422,26.498600006103516 L 58.79999923706055,26.460336685180664 L 59.46266555786133,25.698598861694336 L 59.60000228881836,25.520902633666992 L 60.01039123535156,24.89859962463379 L 60.28765869140625,24.098600387573242 L 60.400001525878906,23.850299835205078 L 60.81184768676758,23.298599243164062 L 60.400001525878906,23.077327728271484 L 59.60000228881836,22.780298233032227 L 59.17314910888672,23.29859733581543 L 58.79999923706055,23.879335403442383 L 58.618953704833984,24.098600387573242 L 58.000003814697266,24.838314056396484 L 57.918434143066406,24.89859962463379 L 57.20000457763672,25.31168556213379 L 56.400001525878906,25.406354904174805 L 55.60000228881836,25.26643180847168 L 54.82369613647461,24.89859962463379 L 54.79999923706055,24.8836612701416 L 54.0,24.420576095581055 L 53.56855773925781,24.098600387573242 L 53.20000457763672,23.80393409729004 L 52.51315689086914,23.298599243164062 L 52.400001525878906,23.192157745361328 L 51.600006103515625,22.73247718811035 L 51.127685546875,22.498598098754883 L 50.79999923706055,22.33487319946289 L 50.0,22.081527709960938 L 49.20000076293945,21.89396095275879 L 48.400001525878906,21.75324058532715 L 48.180633544921875,21.69860076904297 L 47.60000228881836,21.569223403930664 L 46.79999542236328,21.4593563079834 L 46.0,21.381853103637695 L 45.20000076293945,21.349294662475586 L 44.400001525878906,21.367013931274414 L 43.599998474121094,21.503259658813477 L 43.216983795166016,21.69860076904297 L 42.79999923706055,21.953868865966797 L 42.28826904296875,22.498598098754883 L 42.0,22.928964614868164 L 41.78073501586914,23.29859733581543 L 41.48090362548828,24.098600387573242 L 41.20000076293945,24.63710594177246 L 41.049407958984375,24.89859962463379 L 40.68997573852539,25.698598861694336 L 40.400001525878906,26.363637924194336 L 40.318572998046875,26.498600006103516 L 40.209232330322266,27.298599243164062 L 40.14561462402344,28.098600387573242 L 40.076210021972656,28.89859962463379 L 40.00758743286133,29.698598861694336 L 39.95098114013672,30.498600006103516 L 39.87972640991211,31.29859733581543" fill="none" stroke="#000000" stroke-width="0.06210252380371094"/>
	<path d="M 30.638580322265625,27.298601150512695 L 30.799999237060547,27.346515655517578 L 31.60000228881836,27.500638961791992 L 32.400001525878906,27.590349197387695 L 33.20000076293945,27.632047653198242 L 34.0,27.624589920043945 L 34.79999923706055,27.565431594848633 L 35.60000228881836,27.35601043701172 L 35.659873962402344,27.298599243164062 L 35.85652160644531,26.498598098754883 L 35.60000228881836,26.269243240356445 L 34.79999923706055,26.161680221557617 L 34.0,26.09554100036621 L 33.20000076293945,26.02320098876953 L 32.400001525878906,25.92638397216797 L 31.60000228881836,25.79166030883789 L 31.25116539001465,25.698598861694336 L 30.80000114440918,25.580839157104492 L 30.0,25.406991958618164 L 29.200000762939453,25.23677635192871 L 28.399999618530273,25.020347595214844 L 28.075218200683594,24.89859962463379 L 27.600000381469727,24.72796058654785 L 26.80000114440918,24.516714096069336 L 26.0,24.332212448120117 L 25.200000762939453,24.119142532348633 L 25.135997772216797,24.098600387573242 L 24.399999618530273,23.90102767944336 L 23.600000381469727,23.735265731811523 L 22.80000114440918,23.58327293395996 L 22.0,23.402721405029297 L 21.65793800354004,23.29859733581543 L 21.200000762939453,23.1645565032959 L 20.399999618530273,22.9920711517334 L 19.600000381469727,22.843706130981445 L 18.80000114440918,22.680559158325195 L 18.16657257080078,22.498600006103516 L 18.0,22.443613052368164 L 17.200000762939453,22.24485969543457 L 16.399999618530273,22.090730667114258 L 15.600000381469727,21.93717384338379 L 14.80000114440918,21.720455169677734 L 14.744566917419434,21.69860076904297 L 14.0,21.465118408203125 L 13.19999885559082,21.29068946838379 L 12.399999618530273,21.07745361328125 L 11.931106567382812,20.89859962463379 L 11.600000381469727,20.766950607299805 L 10.799999237060547,20.474639892578125 L 10.041539192199707,20.09859848022461 L 10.0,20.06524658203125 L 9.485620498657227,19.298599243164062 L 9.33448600769043,18.498600006103516 L 9.19999885559082,18.278385162353516 L 8.885085105895996,17.69860076904297 L 8.399999618530273,17.070327758789062 L 8.248908042907715,16.898597717285156 L 7.600000381469727,16.1824951171875 L 7.515995979309082,16.09859848022461 L 6.800000190734863,15.382556915283203 L 6.707751750946045,15.298599243164062 L 6.0,14.68191909790039 L 5.770079612731934,14.498600006103516 L 5.200000286102295,14.058372497558594 L 4.559504985809326,13.698600769042969 L 4.400000095367432,13.602893829345703 L 4.31026554107666,13.698600769042969 L 3.5999999046325684,14.118144989013672 L 3.042642116546631,14.498600006103516 L 3.5999999046325684,15.189563751220703 L 3.7609105110168457,15.298599243164062 L 4.400000095367432,15.685043334960938 L 5.038315773010254,16.09859848022461 L 5.200000286102295,16.210979461669922 L 5.999999523162842,16.74207305908203 L 6.1741623878479,16.898597717285156 L 6.8000006675720215,17.432353973388672 L 7.0595879554748535,17.69860076904297 L 7.600000381469727,18.439350128173828 L 7.646821022033691,18.498600006103516 L 7.886342525482178,19.298599243164062 L 7.906993389129639,20.09859848022461 L 8.399999618530273,20.65045166015625 L 8.665486335754395,20.898597717285156 L 9.19999885559082,21.326234817504883 L 9.771743774414062,21.69860076904297 L 10.0,21.860071182250977 L 10.799999237060547,22.16593360900879 L 11.600000381469727,22.476991653442383 L 11.64879322052002,22.498600006103516 L 12.399999618530273,22.763917922973633 L 13.19999885559082,22.952486038208008 L 14.0,23.136688232421875 L 14.52678108215332,23.298601150512695 L 14.80000114440918,23.3890380859375 L 15.600000381469727,23.578041076660156 L 16.399999618530273,23.72989845275879 L 17.200000762939453,23.8909969329834 L 17.94964027404785,24.098600387573242 L 18.0,24.115768432617188 L 18.80000114440918,24.332763671875 L 19.600000381469727,24.49456214904785 L 20.399999618530273,24.65671730041504 L 21.200000762939453,24.873868942260742 L 21.270856857299805,24.89859962463379 L 22.0,25.109542846679688 L 22.80000114440918,25.27975845336914 L 23.600000381469727,25.444795608520508 L 24.399999618530273,25.66127586364746 L 24.508108139038086,25.69860076904297 L 25.200000762939453,25.903139114379883 L 26.0,26.084365844726562 L 26.80000114440918,26.27079963684082 L 27.496679306030273,26.498600006103516 L 27.600000381469727,26.53853988647461 L 28.399999618530273,26.7745304107666 L 29.200000762939453,26.952749252319336 L 29.999998092651367,27.12993812561035 L 30.638580322265625,27.298601150512695" fill="none" stroke="#000000" stroke-width="0.06210252380371094"/>
	<path d="M 29.603200912475586,30.498600006103516 L 30.0,30.619808197021484 L 30.799999237060547,30.77878761291504 L 31.600000381469727,30.8875732421875 L 32.400001525878906,30.97437858581543 L 33.20000076293945,30.962013244628906 L 34.0,30.862768173217773 L 34.78032302856445,30.498600006103516 L 34.79999923706055,30.48726463317871 L 35.60000228881836,29.825334548950195 L 35.74443817138672,29.698598861694336 L 36.362335205078125,28.89859962463379 L 35.60000228881836,28.674116134643555 L 34.95433044433594,28.89859962463379 L 34.79999923706055,28.966150283813477 L 34.0,29.171693801879883 L 33.20000076293945,29.259687423706055 L 32.400001525878906,29.264726638793945 L 31.600004196166992,29.21225357055664 L 30.799999237060547,29.08564567565918 L 30.0594482421875,28.89859962463379 L 30.0,28.88086700439453 L 29.200000762939453,28.675920486450195 L 28.399999618530273,28.496946334838867 L 27.600000381469727,28.310239791870117 L 26.934995651245117,28.098600387573242 L 26.80000114440918,28.04801368713379 L 26.0,27.81538963317871 L 25.200000762939453,27.638078689575195 L 24.399999618530273,27.440752029418945 L 23.964059829711914,27.298599243164062 L 23.600000381469727,27.177722930908203 L 22.80000114440918,26.979700088500977 L 22.0,26.8082332611084 L 21.200000762939453,26.605236053466797 L 20.889352798461914,26.498600006103516 L 20.399999618530273,26.33966636657715 L 19.600000381469727,26.150249481201172 L 18.80000114440918,25.98661994934082 L 18.0,25.79281234741211 L 17.712034225463867,25.698598861694336 L 17.200000762939453,25.54193687438965 L 16.399999618530273,25.370346069335938 L 15.600000381469727,25.224512100219727 L 14.80000114440918,25.0567626953125 L 14.239418029785156,24.898601531982422 L 14.0,24.82430076599121 L 13.19999885559082,24.632448196411133 L 12.399999618530273,24.468027114868164 L 11.600000381469727,24.26197624206543 L 11.183210372924805,24.098600387573242 L 10.799999237060547,23.945865631103516 L 10.0,23.66851234436035 L 9.26512622833252,23.298599243164062 L 9.19999885559082,23.257511138916016 L 8.399999618530273,22.7618465423584 L 8.08938217163086,22.498600006103516 L 7.600000381469727,22.058317184448242 L 7.2953925132751465,21.6986026763916 L 6.818283557891846,20.898595809936523 L 6.800000190734863,20.862621307373047 L 6.530419826507568,20.09859848022461 L 6.5761399269104,19.298599243164062 L 6.0,18.745498657226562 L 5.684835433959961,18.498600006103516 L 5.200000286102295,18.151844024658203 L 4.400000095367432,17.706600189208984 L 4.3919997215271,17.69860076904297 L 3.5999999046325684,17.348522186279297 L 2.8000001907348633,17.122455596923828 L 2.4340786933898926,17.69860076904297 L 2.4243545532226562,18.498600006103516 L 2.8000001907348633,19.009300231933594 L 3.5999999046325684,19.171981811523438 L 3.9739818572998047,19.298599243164062 L 4.400000095367432,19.444896697998047 L 5.200000286102295,20.046485900878906 L 5.247138977050781,20.09859848022461 L 5.421634674072266,20.898595809936523 L 5.616183280944824,21.69860076904297 L 6.000000476837158,22.490598678588867 L 6.008000373840332,22.498600006103516 L 6.565042972564697,23.29859733581543 L 6.800000190734863,23.56047248840332 L 7.383796215057373,24.098600387573242 L 7.600000381469727,24.285764694213867 L 8.399999618530273,24.774946212768555 L 8.604564666748047,24.89859962463379 L 9.19999885559082,25.211761474609375 L 10.0,25.492748260498047 L 10.549455642700195,25.698598861694336 L 10.799999237060547,25.79930305480957 L 11.600000381469727,26.00861930847168 L 12.399999618530273,26.166622161865234 L 13.19999885559082,26.3151798248291 L 13.934921264648438,26.498600006103516 L 14.0,26.517921447753906 L 14.80000114440918,26.712778091430664 L 15.600000381469727,26.865951538085938 L 16.399999618530273,27.013277053833008 L 17.200000762939453,27.199975967407227 L 17.520832061767578,27.298599243164062 L 18.0,27.438846588134766 L 18.80000114440918,27.629541397094727 L 19.600000381469727,27.803550720214844 L 20.399999618530273,28.02997589111328 L 20.57941246032715,28.098600387573242 L 21.200000762939453,28.30591583251953 L 22.0,28.497529983520508 L 22.80000114440918,28.688432693481445 L 23.48115348815918,28.89859962463379 L 23.600000381469727,28.941865921020508 L 24.399999618530273,29.163936614990234 L 25.200000762939453,29.337873458862305 L 26.000001907348633,29.53104019165039 L 26.4957332611084,29.698598861694336 L 26.80000114440918,29.807193756103516 L 27.600000381469727,30.011327743530273 L 28.399999618530273,30.182695388793945 L 29.19999885559082,30.37477684020996 L 29.603200912475586,30.498600006103516" fill="none" stroke="#000000" stroke-width="0.06210252380371094"/>
	<path d="M 39.223323822021484,45.69860076904297 L 39.60000228881836,45.854637145996094 L 40.400001525878906,46.037689208984375 L 41.20000076293945,46.164955139160156 L 42.0,46.40902328491211 L 42.79999923706055,46.3946533203125 L 43.60000228881836,45.8845100402832 L 43.759796142578125,45.69860076904297 L 43.60000228881836,45.48855209350586 L 42.79999923706055,45.12578201293945 L 42.0,45.05633544921875 L 41.30946350097656,44.898597717285156 L 41.20000076293945,44.866722106933594 L 40.400001525878906,44.64635467529297 L 39.60000228881836,44.42515563964844 L 38.87217712402344,44.098602294921875 L 38.80000305175781,44.05219268798828 L 38.0,43.411964416503906 L 37.8923454284668,43.29859924316406 L 37.41600036621094,42.498600006103516 L 37.20000457763672,42.18202209472656 L 36.923255920410156,41.69860076904297 L 36.65602493286133,40.898597717285156 L 36.400001525878906,40.291568756103516 L 36.30160903930664,40.098602294921875 L 36.097801208496094,39.29859924316406 L 35.961769104003906,38.498600006103516 L 35.796199798583984,37.69860076904297 L 35.60000228881836,37.433570861816406 L 34.95024108886719,36.898597717285156 L 34.79999542236328,36.80231475830078 L 34.0,36.501556396484375 L 33.20000076293945,36.27813720703125 L 32.636131286621094,36.098602294921875 L 32.400001525878906,36.02089309692383 L 31.60000228881836,35.81776428222656 L 30.80000114440918,35.65080261230469 L 30.0,35.467987060546875 L 29.504159927368164,35.29859924316406 L 29.200002670288086,35.189353942871094 L 28.399999618530273,34.98285675048828 L 27.600000381469727,34.801856994628906 L 26.80000114440918,34.5612678527832 L 26.63987159729004,34.498600006103516 L 26.0,34.292877197265625 L 25.19999885559082,34.172271728515625 L 24.399999618530273,34.10224914550781 L 23.600000381469727,34.04035186767578 L 22.80000114440918,33.94196319580078 L 22.0,33.78003692626953 L 21.79313087463379,33.69860076904297 L 21.200000762939453,33.48638153076172 L 20.399999618530273,33.18083190917969 L 19.91539192199707,32.898597717285156 L 19.600000381469727,32.713226318359375 L 18.80000114440918,32.32573318481445 L 18.489086151123047,32.098602294921875 L 18.0,31.787900924682617 L 17.360382080078125,31.298599243164062 L 17.200000762939453,30.980539321899414 L 16.781753540039062,30.498598098754883 L 17.200000762939453,30.294687271118164 L 18.0,30.462501525878906 L 18.069129943847656,30.498600006103516 L 18.80000114440918,30.777772903442383 L 19.600000381469727,31.035446166992188 L 20.178417205810547,31.298599243164062 L 20.399999618530273,31.41782569885254 L 21.200000762939453,31.691396713256836 L 22.0,31.925222396850586 L 22.549745559692383,32.098602294921875 L 22.80000114440918,32.18418884277344 L 23.600000381469727,32.368682861328125 L 24.399999618530273,32.50028610229492 L 25.200002670288086,32.62559509277344 L 25.999998092651367,32.80591583251953 L 26.2692813873291,32.898597717285156 L 26.80000114440918,33.06483459472656 L 27.600000381469727,33.23854064941406 L 28.399999618530273,33.393592834472656 L 29.19999885559082,33.593929290771484 L 29.508352279663086,33.69860076904297 L 30.0,33.85556411743164 L 30.799999237060547,34.022743225097656 L 31.60000228881836,34.17293167114258 L 32.400001525878906,34.315494537353516 L 33.20000076293945,34.49009323120117 L 33.253578186035156,34.498600006103516 L 34.0,34.60664367675781 L 34.79999923706055,34.625389099121094 L 35.470130920410156,34.498600006103516 L 35.60000228881836,34.469459533691406 L 36.400001525878906,33.88153076171875 L 36.54705810546875,33.69860076904297 L 37.20000076293945,33.00276565551758 L 37.30292892456055,32.898597717285156 L 37.81232833862305,32.098602294921875 L 38.0,31.743377685546875 L 38.223976135253906,31.29859733581543 L 38.35139465332031,30.498600006103516 L 38.398338317871094,29.698598861694336 L 38.496707916259766,28.89859962463379 L 38.77629089355469,28.098600387573242 L 38.79999923706055,28.071697235107422 L 39.17746353149414,27.29859733581543 L 38.79999923706055,26.864110946655273 L 38.0,27.078025817871094 L 37.69599914550781,27.298599243164062 L 37.20000076293945,27.848142623901367 L 36.9713134765625,28.098600387573242 L 36.420654296875,28.89859962463379 L 36.79502868652344,29.698598861694336 L 36.67071533203125,30.498600006103516 L 36.400001525878906,31.097902297973633 L 36.281227111816406,31.298599243164062 L 35.65961837768555,32.098602294921875 L 35.60000228881836,32.15642547607422 L 34.79999923706055,32.5908203125 L 34.0,32.72947692871094 L 33.20000076293945,32.741302490234375 L 32.400001525878906,32.65086364746094 L 31.600004196166992,32.5511589050293 L 30.799999237060547,32.41394805908203 L 30.0,32.261474609375 L 29.468523025512695,32.098602294921875 L 29.200002670288086,32.008460998535156 L 28.399999618530273,31.815046310424805 L 27.600000381469727,31.6516170501709 L 26.80000114440918,31.473920822143555 L 26.25701332092285,31.298599243164062 L 26.000001907348633,31.206804275512695 L 25.200000762939453,31.00591278076172 L 24.399999618530273,30.848159790039062 L 23.600000381469727,30.674821853637695 L 23.05024528503418,30.498600006103516 L 22.80000114440918,30.410642623901367 L 22.0,30.191869735717773 L 21.200000762939453,29.991880416870117 L 20.399999618530273,29.72223663330078 L 20.349960327148438,29.698598861694336 L 19.600000381469727,29.42824935913086 L 18.80000114440918,29.237579345703125 L 18.0,29.053695678710938 L 17.356285095214844,28.89859962463379 L 17.200000762939453,28.85479736328125 L 16.399999618530273,28.676050186157227 L 15.600000381469727,28.51363754272461 L 14.80000114440918,28.366056442260742 L 14.0,28.187559127807617 L 13.622030258178711,28.098600387573242 L 13.19999885559082,28.000600814819336 L 12.399999618530273,27.865299224853516 L 11.600000381469727,27.728666305541992 L 10.799999237060547,27.588075637817383 L 10.0,27.370126724243164 L 9.809507369995117,27.298599243164062 L 9.19999885559082,27.088411331176758 L 8.399999618530273,26.803251266479492 L 7.832854270935059,26.498600006103516 L 7.600000381469727,26.359224319458008 L 6.800000190734863,25.864120483398438 L 6.605464935302734,25.698598861694336 L 6.0,25.172853469848633 L 5.734579563140869,24.89859962463379 L 5.200000286102295,24.23478126525879 L 5.093751907348633,24.098600387573242 L 4.701962947845459,23.29859733581543 L 4.400000095367432,22.600730895996094 L 4.3466057777404785,22.498600006103516 L 4.120927810668945,21.69860076904297 L 4.02011251449585,20.898595809936523 L 3.974665641784668,20.09859848022461 L 3.5999999046325684,19.44448471069336 L 2.8000001907348633,19.92474365234375 L 2.7068309783935547,20.09859848022461 L 2.6996512413024902,20.898595809936523 L 2.7801849842071533,21.698598861694336 L 2.8000001907348633,21.796894073486328 L 2.919814109802246,22.498600006103516 L 3.1128077507019043,23.298599243164062 L 3.293527126312256,24.098600387573242 L 3.5999999046325684,24.89059829711914 L 3.607999801635742,24.89859962463379 L 4.123103618621826,25.698598861694336 L 4.400000095367432,25.981111526489258 L 4.923305988311768,26.498600006103516 L 5.200000286102295,26.754058837890625 L 5.810304164886475,27.298599243164062 L 6.0,27.476730346679688 L 6.800000190734863,28.00375747680664 L 6.958722114562988,28.098600387573242 L 7.599999904632568,28.428279876708984 L 8.399999618530273,28.704437255859375 L 8.948320388793945,28.89859962463379 L 9.19999885559082,28.991907119750977 L 10.0,29.201881408691406 L 10.799999237060547,29.358407974243164 L 11.600000381469727,29.47711753845215 L 12.399998664855957,29.565446853637695 L 13.12458610534668,29.698598861694336 L 13.19999885559082,29.71430015563965 L 14.0,29.871347427368164 L 14.80000114440918,30.05311393737793 L 15.600000381469727,30.368993759155273 L 15.881244659423828,30.498600006103516 L 16.217937469482422,31.298599243164062 L 16.399999618530273,31.593706130981445 L 16.66293716430664,32.098602294921875 L 17.200000762939453,32.83415985107422 L 17.27127456665039,32.898597717285156 L 18.0,33.43098449707031 L 18.359018325805664,33.69860076904297 L 18.80000114440918,34.02183532714844 L 19.421682357788086,34.498600006103516 L 19.600000381469727,34.67487335205078 L 20.399999618530273,35.170867919921875 L 20.682016372680664,35.29859924316406 L 21.200000762939453,35.51252365112305 L 22.0,35.665733337402344 L 22.80000114440918,35.71350860595703 L 23.600000381469727,35.68217468261719 L 24.399999618530273,35.640663146972656 L 25.200000762939453,35.62297058105469 L 26.0,35.65779113769531 L 26.749143600463867,36.098602294921875 L 26.80000114440918,36.27462387084961 L 27.600000381469727,36.43482208251953 L 28.399999618530273,36.710609436035156 L 28.90896224975586,36.898597717285156 L 29.200000762939453,37.020931243896484 L 29.999998092651367,37.2054328918457 L 30.80000114440918,37.36812210083008 L 31.60000228881836,37.603782653808594 L 31.80972671508789,37.69860076904297 L 32.400001525878906,37.957801818847656 L 33.20000076293945,38.33828353881836 L 33.410491943359375,38.498600006103516 L 34.0,39.04383087158203 L 34.210933685302734,39.29859924316406 L 34.65193557739258,40.098602294921875 L 34.79999923706055,40.359107971191406 L 35.04642868041992,40.898597717285156 L 35.3306884765625,41.69860076904297 L 35.600006103515625,42.21399688720703 L 35.759578704833984,42.498600006103516 L 36.12385940551758,43.29859924316406 L 36.400001525878906,43.88706970214844 L 36.5338020324707,44.098602294921875 L 36.400001525878906,44.53236770629883 L 35.60000228881836,44.381961822509766 L 35.330467224121094,44.098602294921875 L 34.79999923706055,43.558135986328125 L 34.537715911865234,43.29859924316406 L 34.0,42.524314880371094 L 33.978424072265625,42.498600006103516 L 33.484100341796875,41.69860076904297 L 33.20000076293945,41.27088928222656 L 32.919708251953125,40.898597717285156 L 32.400001525878906,40.34527587890625 L 32.13653564453125,40.098602294921875 L 31.60000228881836,39.68124008178711 L 30.993938446044922,39.29859924316406 L 30.799999237060547,39.179527282714844 L 30.0,38.89548873901367 L 29.642297744750977,39.29859924316406 L 29.647947311401367,40.098602294921875 L 30.000001907348633,40.74467468261719 L 30.16822624206543,40.898597717285156 L 30.799999237060547,41.446041107177734 L 31.04874038696289,41.69860076904297 L 31.60000228881836,42.326900482177734 L 31.74652671813965,42.498600006103516 L 32.31036376953125,43.29859924316406 L 32.400001525878906,43.439788818359375 L 32.95272445678711,44.098602294921875 L 33.20000076293945,44.252201080322266 L 33.931365966796875,44.898597717285156 L 34.0,44.98784637451172 L 34.79999923706055,45.305721282958984 L 35.60000228881836,45.28175354003906 L 36.400001525878906,45.011539459228516 L 37.20000076293945,44.99446105957031 L 38.0,45.279579162597656 L 38.79999923706055,45.53086471557617 L 39.223323822021484,45.69860076904297" fill="none" stroke="#000000" stroke-width="0.06210252380371094"/>
	<path d="M 36.45237350463867,50.498600006103516 L 37.20000076293945,50.996063232421875 L 38.0,50.95804214477539 L 38.79999923706055,50.890350341796875 L 39.244991302490234,50.498600006103516 L 39.38179016113281,49.69860076904297 L 39.43596649169922,48.89860153198242 L 39.399818420410156,48.09859848022461 L 39.60000228881836,47.43964385986328 L 39.72117614746094,47.29859924316406 L 40.400001525878906,47.06199645996094 L 40.748497009277344,47.29859924316406 L 41.20000076293945,47.72016525268555 L 42.000003814697266,48.064449310302734 L 42.07949447631836,48.09859848022461 L 42.79999923706055,48.40363693237305 L 43.60000228881836,48.538970947265625 L 44.400001525878906,48.57612609863281 L 45.19999694824219,48.58946228027344 L 46.0,48.66241455078125 L 46.79999923706055,48.7021598815918 L 47.60000228881836,48.71997833251953 L 48.400001525878906,48.65623092651367 L 49.20000076293945,48.5433464050293 L 50.0,48.3593864440918 L 50.5531120300293,48.09859848022461 L 50.79999923706055,47.97367477416992 L 51.599998474121094,47.57501220703125 L 52.145050048828125,47.29859924316406 L 52.400001525878906,47.15315246582031 L 53.05900573730469,46.498600006103516 L 53.20000076293945,46.360355377197266 L 53.84495544433594,45.69860076904297 L 54.0,45.54294204711914 L 54.71611404418945,44.898597717285156 L 54.79999542236328,44.70551681518555 L 55.01380157470703,44.098602294921875 L 55.18212127685547,43.29859924316406 L 55.329002380371094,42.498600006103516 L 55.51523971557617,41.69860076904297 L 55.60000228881836,41.51409149169922 L 55.86709213256836,40.898597717285156 L 55.992801666259766,40.098602294921875 L 56.12065887451172,39.29859924316406 L 56.148841857910156,38.498600006103516 L 56.23059844970703,37.69860076904297 L 56.256038665771484,36.898597717285156 L 56.400001525878906,36.67639923095703 L 57.20000076293945,36.126190185546875 L 57.477439880371094,36.098602294921875 L 58.0,36.042137145996094 L 58.79999923706055,36.019195556640625 L 59.60000228881836,36.007991790771484 L 60.400001525878906,35.99285125732422 L 61.20000076293945,35.97581481933594 L 62.0,35.95221710205078 L 62.80000305175781,35.806663513183594 L 63.15987777709961,35.29859924316406 L 63.03284454345703,34.498600006103516 L 62.94581985473633,33.69860076904297 L 63.01216125488281,32.898597717285156 L 63.198856353759766,32.098602294921875 L 63.41205596923828,31.298599243164062 L 63.18159866333008,30.498600006103516 L 63.13054656982422,29.698598861694336 L 63.2706298828125,28.89859962463379 L 63.207340240478516,28.098600387573242 L 63.05405807495117,27.298599243164062 L 62.80000305175781,26.895090103149414 L 62.47681427001953,26.498600006103516 L 62.0,25.722850799560547 L 61.9870719909668,25.698598861694336 L 61.89166259765625,24.89859962463379 L 61.850608825683594,24.098600387573242 L 61.49321746826172,23.29859733581543 L 61.20000457763672,22.72770118713379 L 61.09893035888672,22.498600006103516 L 60.90484619140625,21.69860076904297 L 60.71034622192383,20.898597717285156 L 60.400001525878906,20.265541076660156 L 60.31538009643555,20.09859848022461 L 59.89518737792969,19.298603057861328 L 59.60000228881836,18.887645721435547 L 59.29953384399414,18.498600006103516 L 58.79999923706055,17.780860900878906 L 58.74998092651367,17.69860076904297 L 58.76186752319336,16.898597717285156 L 58.533607482910156,16.09859848022461 L 58.0,15.307689666748047 L 57.99184799194336,15.298599243164062 L 57.20000076293945,14.506599426269531 L 57.19200134277344,14.498600006103516 L 56.400001525878906,13.73626708984375 L 56.355445861816406,13.698600769042969 L 55.60000228881836,13.031936645507812 L 55.48855209350586,12.898597717285156 L 54.959163665771484,12.09859848022461 L 54.79999923706055,11.778205871582031 L 54.60934829711914,11.298599243164062 L 54.0,10.673603057861328 L 53.80224609375,10.498600006103516 L 53.20000076293945,9.919219970703125 L 52.943565368652344,9.698600769042969 L 52.400001525878906,9.317302703857422 L 51.60000228881836,9.114452362060547 L 51.3067512512207,8.898597717285156 L 50.79999923706055,8.331489562988281 L 50.62798309326172,8.09859848022461 L 50.0,7.428234100341797 L 49.856781005859375,7.2985992431640625 L 49.20000076293945,6.717311859130859 L 48.8048095703125,6.498600006103516 L 48.400001525878906,6.287921905517578 L 47.60000228881836,6.027187347412109 L 46.94123840332031,5.698604583740234 L 46.79999923706055,5.595386505126953 L 46.0,4.9066009521484375 L 45.99199676513672,4.898597717285156 L 45.20000076293945,4.426544189453125 L 44.400001525878906,4.299816131591797 L 43.65793228149414,4.098598480224609 L 43.60000228881836,4.075225830078125 L 42.87803268432617,3.2985992431640625 L 42.79999542236328,3.2171630859375 L 42.0,2.8932723999023438 L 41.20000076293945,2.818248748779297 L 40.400001525878906,2.6178550720214844 L 40.251346588134766,2.4986000061035156 L 39.60000228881836,1.98876953125 L 38.79999923706055,1.9721908569335938 L 38.0,2.3494300842285156 L 37.20000076293945,2.172801971435547 L 36.400001525878906,1.7150688171386719 L 36.3511962890625,1.6986045837402344 L 35.60000228881836,1.4743919372558594 L 34.79999923706055,1.2855796813964844 L 34.0,1.2566909790039062 L 33.20000076293945,1.3396339416503906 L 32.400001525878906,1.4438896179199219 L 31.66233253479004,1.6986007690429688 L 31.60000228881836,1.7252922058105469 L 30.799999237060547,1.8804359436035156 L 30.0,2.0151100158691406 L 29.200000762939453,2.0645065307617188 L 28.399999618530273,2.0054664611816406 L 27.600000381469727,1.7960243225097656 L 26.80000114440918,1.7437667846679688 L 26.0,1.7832374572753906 L 25.19999885559082,1.8827705383300781 L 24.399999618530273,2.006999969482422 L 23.600000381469727,2.166057586669922 L 22.85672950744629,2.4986000061035156 L 22.80000114440918,2.5279884338378906 L 22.0,2.5176925659179688 L 21.871213912963867,2.4986000061035156 L 21.19999885559082,2.4007225036621094 L 20.399999618530273,2.344982147216797 L 20.060138702392578,2.4986000061035156 L 19.600000381469727,2.6920623779296875 L 18.80000114440918,2.9720077514648438 L 18.0,3.2738304138183594 L 17.962854385375977,3.2985992431640625 L 17.19999885559082,3.802654266357422 L 16.43798065185547,4.098598480224609 L 16.399999618530273,4.113006591796875 L 15.600000381469727,4.203502655029297 L 14.80000114440918,4.345954895019531 L 14.0,4.742378234863281 L 13.723543167114258,4.898597717285156 L 13.19999885559082,5.159580230712891 L 12.433897018432617,5.698600769042969 L 12.399999618530273,5.726634979248047 L 11.600000381469727,6.22540283203125 L 11.047140121459961,6.498600006103516 L 10.799999237060547,6.610332489013672 L 10.0,6.919761657714844 L 9.334275245666504,7.298595428466797 L 9.19999885559082,7.393627166748047 L 8.430212020874023,8.09859848022461 L 8.399999618530273,8.134525299072266 L 7.807337760925293,8.898597717285156 L 7.600000381469727,9.066612243652344 L 6.8000006675720215,9.334831237792969 L 6.279552936553955,9.698600769042969 L 6.0,9.945892333984375 L 5.4113450050354,10.498600006103516 L 5.200000286102295,10.752655029296875 L 4.801406383514404,11.298599243164062 L 4.400000095367432,12.047550201416016 L 4.360610008239746,12.09859848022461 L 3.5999999046325684,12.632598876953125 L 3.2662644386291504,12.898597717285156 L 2.8307578563690186,13.698600769042969 L 2.8000001907348633,13.772174835205078 L 2.5234386920928955,14.498600006103516 L 2.082575559616089,15.298599243164062 L 1.9999998807907104,15.421943664550781 L 1.5970040559768677,16.09859848022461 L 1.3710038661956787,16.898597717285156 L 1.384415626525879,17.69860076904297 L 1.3725855350494385,18.498600006103516 L 1.38770592212677,19.298599243164062 L 1.3621269464492798,20.09859848022461 L 1.315035343170166,20.898597717285156 L 1.3209701776504517,21.69860076904297 L 1.3095321655273438,22.49860191345215 L 1.5323023796081543,23.29859733581543 L 1.7280784845352173,24.098600387573242 L 1.7862380743026733,24.89859962463379 L 1.9999998807907104,25.537893295288086 L 2.0572447776794434,25.698598861694336 L 2.4503493309020996,26.498600006103516 L 2.8000001907348633,26.888341903686523 L 3.2891464233398438,27.298599243164062 L 3.5999999046325684,27.577791213989258 L 4.238401889801025,28.098600387573242 L 4.400000095367432,28.251930236816406 L 5.013439178466797,28.89859962463379 L 5.200000286102295,29.098546981811523 L 6.0,29.626611709594727 L 6.121203899383545,29.698598861694336 L 6.800000190734863,30.10504150390625 L 7.600000381469727,30.34564208984375 L 8.399999618530273,30.48767852783203 L 8.4258451461792,30.498600006103516 L 9.19999885559082,30.787338256835938 L 10.0,31.017864227294922 L 10.799999237060547,31.123868942260742 L 11.600000381469727,31.19195556640625 L 12.249969482421875,31.298599243164062 L 12.399999618530273,31.32571792602539 L 13.19999885559082,31.461156845092773 L 14.0,31.604848861694336 L 14.80000114440918,31.865089416503906 L 15.03564739227295,32.098602294921875 L 15.358604431152344,32.898597717285156 L 15.600001335144043,33.424171447753906 L 15.73388671875,33.69860076904297 L 16.399999618530273,34.39031219482422 L 16.592021942138672,34.49859619140625 L 17.200000762939453,34.79256057739258 L 18.0,35.19091796875 L 18.117876052856445,35.29859924316406 L 18.624483108520508,36.098602294921875 L 18.80000114440918,36.45842742919922 L 19.362890243530273,36.898597717285156 L 19.600000381469727,36.99144744873047 L 20.399999618530273,37.302181243896484 L 21.200000762939453,37.43874740600586 L 22.000001907348633,37.548458099365234 L 22.80000114440918,37.53260803222656 L 23.600000381469727,37.42127990722656 L 24.399999618530273,37.218528747558594 L 25.200000762939453,36.99382019042969 L 25.80099105834961,36.898597717285156 L 26.0,36.865604400634766 L 26.12133026123047,36.898597717285156 L 26.80000114440918,37.076324462890625 L 27.600000381469727,37.497108459472656 L 27.798830032348633,37.69860076904297 L 28.044431686401367,38.498600006103516 L 28.318784713745117,39.29859924316406 L 28.399999618530273,39.52743911743164 L 28.588327407836914,40.098602294921875 L 28.79193115234375,40.898597717285156 L 29.189088821411133,41.69860076904297 L 29.200000762939453,41.716156005859375 L 29.66429901123047,42.498600006103516 L 30.000001907348633,42.84538269042969 L 30.650836944580078,43.29859924316406 L 30.799997329711914,43.41526412963867 L 31.600000381469727,43.90132141113281 L 31.885814666748047,44.098602294921875 L 32.400001525878906,44.659873962402344 L 32.54742431640625,44.898597717285156 L 32.904998779296875,45.69860076904297 L 33.20000076293945,46.21636962890625 L 33.34607696533203,46.498600006103516 L 33.88612365722656,47.29859924316406 L 34.0,47.41598129272461 L 34.598052978515625,48.09859848022461 L 34.79999923706055,48.31996154785156 L 35.42506790161133,48.89860153198242 L 35.60000228881836,49.09909439086914 L 35.971107482910156,49.69860076904297 L 36.400001525878906,50.43094253540039 L 36.45237350463867,50.498600006103516" fill="none" stroke="#000000" stroke-width="0.06210252380371094"/>
	<path d="M 35.44988250732422,24.89859962463379 L 35.60000228881836,24.963520050048828 L 36.400001525878906,25.287899017333984 L 37.20000076293945,25.50617218017578 L 38.0,25.484800338745117 L 38.79999923706055,25.223777770996094 L 39.20384979248047,24.89859962463379 L 39.60000228881836,24.47211456298828 L 39.855072021484375,24.098600387573242 L 40.073387145996094,23.29859733581543 L 40.205596923828125,22.498600006103516 L 40.400001525878906,22.181432723999023 L 40.66795349121094,21.698598861694336 L 41.20000076293945,21.176847457885742 L 41.48136520385742,20.89859962463379 L 42.0,20.30487060546875 L 42.32624816894531,20.09859848022461 L 42.79999923706055,19.84429168701172 L 43.60000228881836,19.84677505493164 L 44.400001525878906,19.878448486328125 L 45.20000076293945,19.940876007080078 L 46.0,20.003143310546875 L 46.79999923706055,20.071441650390625 L 47.60000228881836,20.07339096069336 L 48.400001525878906,20.010025024414062 L 49.19999694824219,19.843067169189453 L 49.910640716552734,19.298599243164062 L 50.0,19.22399139404297 L 50.79999923706055,18.574417114257812 L 50.897037506103516,18.498600006103516 L 51.60000228881836,18.00548553466797 L 52.100669860839844,17.69860076904297 L 52.400001525878906,17.49738311767578 L 53.20000076293945,17.125713348388672 L 53.57627487182617,16.898601531982422 L 54.0,16.656368255615234 L 54.79999923706055,16.111560821533203 L 54.81316375732422,16.09859848022461 L 55.60000228881836,15.406478881835938 L 55.70322799682617,15.298603057861328 L 56.01930236816406,14.498600006103516 L 55.60000228881836,14.044208526611328 L 54.79999923706055,14.484733581542969 L 54.78260040283203,14.498600006103516 L 54.0,14.92550277709961 L 53.20000076293945,15.27096939086914 L 53.14666748046875,15.298599243164062 L 52.400001525878906,15.608047485351562 L 51.60000228881836,15.923019409179688 L 51.30662536621094,16.09859848022461 L 50.79999923706055,16.429187774658203 L 50.24663543701172,16.898597717285156 L 50.0,17.122451782226562 L 49.33838653564453,17.69860076904297 L 49.20000076293945,17.814857482910156 L 48.400001525878906,18.22667694091797 L 47.62937927246094,18.498600006103516 L 47.60000228881836,18.51034164428711 L 46.79999923706055,18.648204803466797 L 46.0,18.66550064086914 L 45.20000457763672,18.608352661132812 L 44.7681884765625,18.498600006103516 L 44.400001525878906,18.40003204345703 L 43.599998474121094,18.159664154052734 L 42.79999923706055,17.71420669555664 L 42.782745361328125,17.69860076904297 L 42.19618606567383,16.898597717285156 L 42.0,16.514759063720703 L 41.813087463378906,16.09859848022461 L 41.55964660644531,15.298599243164062 L 41.247886657714844,14.498600006103516 L 41.20000076293945,14.423042297363281 L 40.859657287597656,13.698600769042969 L 40.51824951171875,12.89859390258789 L 40.400001525878906,12.70743179321289 L 40.099002838134766,12.09859848022461 L 39.887569427490234,11.298599243164062 L 39.74067687988281,10.498600006103516 L 39.62431716918945,9.698604583740234 L 39.60000228881836,9.53652572631836 L 39.51280212402344,8.898597717285156 L 39.43029022216797,8.09859848022461 L 39.22099304199219,7.2985992431640625 L 38.79999923706055,6.867404937744141 L 38.371002197265625,6.498600006103516 L 38.0,6.022525787353516 L 37.76319122314453,5.698600769042969 L 38.0,5.504432678222656 L 38.79999923706055,5.396385192871094 L 39.60000228881836,5.528324127197266 L 39.931724548339844,5.698600769042969 L 40.400001525878906,6.002689361572266 L 40.90714645385742,6.498600006103516 L 41.054786682128906,7.2985992431640625 L 41.02967071533203,8.09859848022461 L 40.994537353515625,8.898597717285156 L 41.00402069091797,9.698600769042969 L 41.06102752685547,10.498600006103516 L 41.20000076293945,10.92154312133789 L 41.32633972167969,11.298599243164062 L 41.598960876464844,12.09859848022461 L 41.982627868652344,12.898597717285156 L 42.0,12.921058654785156 L 42.426361083984375,13.698600769042969 L 42.79999923706055,14.363460540771484 L 42.90046310424805,14.498600006103516 L 43.353904724121094,15.298599243164062 L 43.60000228881836,15.66550064086914 L 43.977333068847656,16.09859848022461 L 44.400001525878906,16.472522735595703 L 45.20000076293945,16.823467254638672 L 45.80034255981445,16.898597717285156 L 46.0,16.923683166503906 L 46.21869659423828,16.898597717285156 L 46.79999923706055,16.82915496826172 L 47.599998474121094,16.52417755126953 L 48.28769302368164,16.09859848022461 L 48.400001525878906,16.023014068603516 L 49.20000076293945,15.483417510986328 L 49.43064880371094,15.298599243164062 L 50.0,14.914020538330078 L 50.79999923706055,14.524829864501953 L 50.850894927978516,14.498600006103516 L 51.60000228881836,14.216594696044922 L 52.400001525878906,14.04135513305664 L 53.19999694824219,13.823921203613281 L 53.43431091308594,13.698600769042969 L 54.0,13.445308685302734 L 54.4162483215332,12.898597717285156 L 54.0,12.40011215209961 L 53.20000076293945,12.315177917480469 L 52.400001525878906,12.376998901367188 L 51.60000228881836,12.776573181152344 L 51.180419921875,12.898597717285156 L 50.79999542236328,12.999114990234375 L 50.0,13.043746948242188 L 49.440452575683594,12.898601531982422 L 49.20000076293945,12.832618713378906 L 48.400001525878906,12.314407348632812 L 48.05488586425781,12.09859848022461 L 47.60000228881836,11.813182830810547 L 46.79999923706055,11.344547271728516 L 46.747596740722656,11.298599243164062 L 46.07382583618164,10.498600006103516 L 46.0,10.373283386230469 L 45.684814453125,9.698600769042969 L 45.49847412109375,8.89859390258789 L 45.33761978149414,8.09859848022461 L 45.20000076293945,7.638462066650391 L 45.09137725830078,7.2985992431640625 L 44.76036071777344,6.498600006103516 L 44.400001525878906,6.165168762207031 L 43.60000228881836,5.735160827636719 L 43.53486251831055,5.698600769042969 L 42.79999542236328,5.357097625732422 L 42.09132385253906,4.898597717285156 L 42.0,4.826541900634766 L 41.20000076293945,4.4724578857421875 L 40.400001525878906,4.226776123046875 L 40.08326721191406,4.098598480224609 L 39.60000228881836,3.896240234375 L 38.79999923706055,3.8910064697265625 L 38.07748794555664,4.098598480224609 L 38.0,4.1240997314453125 L 37.20000076293945,4.369541168212891 L 36.400001525878906,4.493640899658203 L 35.60000228881836,4.418315887451172 L 34.79999923706055,4.106597900390625 L 34.79199981689453,4.098598480224609 L 34.0,3.6292152404785156 L 33.52961730957031,3.2985992431640625 L 33.20000076293945,3.0927810668945312 L 32.400001525878906,2.771778106689453 L 31.650428771972656,3.2985992431640625 L 32.07450485229492,4.098598480224609 L 32.400001525878906,4.512454986572266 L 32.78299331665039,4.898597717285156 L 33.20000076293945,5.328407287597656 L 33.7935905456543,5.698604583740234 L 34.0,5.831916809082031 L 34.79999923706055,6.009563446044922 L 35.60000228881836,6.196063995361328 L 36.28557586669922,6.498600006103516 L 36.400001525878906,6.566520690917969 L 37.20000076293945,7.211536407470703 L 37.27289581298828,7.2985992431640625 L 37.725276947021484,8.09859848022461 L 37.977115631103516,8.898597717285156 L 38.0,8.983959197998047 L 38.15923309326172,9.698604583740234 L 38.292503356933594,10.498600006103516 L 38.407127380371094,11.298599243164062 L 38.610443115234375,12.09859848022461 L 38.79999542236328,12.498798370361328 L 38.9918327331543,12.898597717285156 L 39.26216506958008,13.698600769042969 L 39.553062438964844,14.498600006103516 L 39.60000228881836,14.62347412109375 L 39.817779541015625,15.298599243164062 L 39.96321105957031,16.09859848022461 L 40.11024475097656,16.898597717285156 L 40.400001525878906,17.577556610107422 L 40.46330261230469,17.69860076904297 L 41.13243865966797,18.498600006103516 L 41.20000076293945,18.559158325195312 L 41.986663818359375,19.298599243164062 L 41.19999694824219,19.722225189208984 L 40.400001525878906,19.785892486572266 L 39.842830657958984,20.09859848022461 L 39.60000228881836,20.250587463378906 L 38.79999923706055,20.669803619384766 L 38.0,20.79758644104004 L 37.20000076293945,20.688920974731445 L 36.400001525878906,20.45168685913086 L 35.667579650878906,20.09859848022461 L 35.60000228881836,20.056865692138672 L 34.79999923706055,19.623703002929688 L 34.36016082763672,19.298599243164062 L 34.0,19.011844635009766 L 33.45233917236328,18.498600006103516 L 33.20000457763672,18.224395751953125 L 32.767452239990234,17.69860076904297 L 32.400001525878906,17.17139434814453 L 32.203277587890625,16.898597717285156 L 31.832277297973633,16.09859848022461 L 31.60000228881836,15.59170150756836 L 31.459291458129883,15.298599243164062 L 31.216245651245117,14.498600006103516 L 31.03769874572754,13.698604583740234 L 30.799999237060547,12.907257080078125 L 30.79199981689453,12.898597717285156 L 30.58302116394043,12.09859848022461 L 30.435379028320312,11.298599243164062 L 30.28946876525879,10.498600006103516 L 30.124696731567383,9.698600769042969 L 30.0,9.36727523803711 L 29.833982467651367,8.898597717285156 L 29.65785026550293,8.09859848022461 L 29.608070373535156,7.2985992431640625 L 30.000001907348633,6.810787200927734 L 30.51287078857422,7.2985992431640625 L 30.799997329711914,7.775180816650391 L 31.013673782348633,8.09859848022461 L 31.267396926879883,8.898597717285156 L 31.532028198242188,9.698600769042969 L 31.60000228881836,9.855262756347656 L 31.833080291748047,10.498600006103516 L 32.0225830078125,11.298599243164062 L 32.21731948852539,12.09859848022461 L 32.400001525878906,12.652172088623047 L 32.489784240722656,12.898601531982422 L 32.709991455078125,13.698600769042969 L 32.93040466308594,14.498600006103516 L 33.20000076293945,15.149482727050781 L 33.2733039855957,15.298599243164062 L 33.61243438720703,16.09859848022461 L 34.0,16.739288330078125 L 34.11249542236328,16.89859390258789 L 34.75093460083008,17.69860076904297 L 34.79999923706055,17.746204376220703 L 35.60000228881836,18.22039031982422 L 36.14927291870117,17.69860076904297 L 35.72501754760742,16.898597717285156 L 35.60000228881836,16.763324737548828 L 35.2398567199707,16.09859848022461 L 34.972312927246094,15.298599243164062 L 34.79999923706055,14.90292739868164 L 34.621498107910156,14.498600006103516 L 34.39239501953125,13.698600769042969 L 34.186431884765625,12.898597717285156 L 34.0,12.370063781738281 L 33.89558410644531,12.09859848022461 L 33.669349670410156,11.298599243164062 L 33.45869827270508,10.498600006103516 L 33.20000076293945,9.862728118896484 L 33.121131896972656,9.698596954345703 L 32.824859619140625,8.898597717285156 L 32.553192138671875,8.09859848022461 L 32.400001525878906,7.795127868652344 L 32.15922546386719,7.2985992431640625 L 31.777156829833984,6.498600006103516 L 31.600004196166992,6.264644622802734 L 31.19024085998535,5.698600769042969 L 30.799999237060547,5.110645294189453 L 30.65047264099121,4.898597717285156 L 30.254976272583008,4.098594665527344 L 30.0,3.726825714111328 L 29.74684715270996,3.298595428466797 L 29.19999885559082,2.8191146850585938 L 28.480579376220703,3.298603057861328 L 28.58980941772461,4.098598480224609 L 28.742809295654297,4.898593902587891 L 28.919084548950195,5.698600769042969 L 29.013486862182617,6.498600006103516 L 28.629430770874023,7.2985992431640625 L 28.59994888305664,8.09859848022461 L 28.62904930114746,8.898601531982422 L 28.70193862915039,9.698604583740234 L 28.793256759643555,10.498600006103516 L 28.896066665649414,11.298599243164062 L 29.024751663208008,12.09859848022461 L 29.200000762939453,12.857608795166016 L 29.211721420288086,12.898597717285156 L 29.397502899169922,13.698600769042969 L 29.545122146606445,14.498600006103516 L 29.709735870361328,15.298599243164062 L 29.980743408203125,16.09859848022461 L 30.0,16.135665893554688 L 30.329496383666992,16.898597717285156 L 30.764039993286133,17.698596954345703 L 30.799999237060547,17.74264907836914 L 31.33759880065918,18.498600006103516 L 31.60000228881836,18.795635223388672 L 32.036983489990234,19.298599243164062 L 32.400001525878906,19.702342987060547 L 32.79967498779297,20.09859848022461 L 33.20000076293945,20.46996307373047 L 33.79991149902344,20.89859962463379 L 34.0,21.041831970214844 L 34.79999923706055,21.407499313354492 L 35.381492614746094,21.698598861694336 L 35.60000228881836,21.8194580078125 L 36.400001525878906,22.101953506469727 L 37.20000076293945,22.31402015686035 L 38.0,22.338903427124023 L 38.79999923706055,22.19859504699707 L 39.15684509277344,22.49860191345215 L 39.009071350097656,23.29859733581543 L 38.79999923706055,23.48540687561035 L 38.0,23.839372634887695 L 37.20000076293945,23.865942001342773 L 36.400001525878906,23.683008193969727 L 35.60000228881836,23.381017684936523 L 35.41400146484375,23.298601150512695 L 34.79999923706055,23.06632423400879 L 34.0,22.853059768676758 L 33.20000076293945,22.59071159362793 L 32.965126037597656,22.498598098754883 L 32.400001525878906,22.25749397277832 L 31.600004196166992,22.03849220275879 L 30.799997329711914,22.325593948364258 L 30.000001907348633,22.226167678833008 L 29.200002670288086,22.037841796875 L 28.45365333557129,21.69860076904297 L 28.399999618530273,21.66363525390625 L 27.600000381469727,21.302026748657227 L 26.80000114440918,20.959985733032227 L 26.627954483032227,20.89859962463379 L 26.0,20.702289581298828 L 25.200002670288086,20.604257583618164 L 24.399999618530273,20.500673294067383 L 23.600000381469727,20.388904571533203 L 22.80000114440918,20.256072998046875 L 22.145261764526367,20.09859848022461 L 22.0,19.982112884521484 L 21.805423736572266,19.298599243164062 L 21.857091903686523,18.498600006103516 L 21.876781463623047,17.69860076904297 L 21.86026382446289,16.898597717285156 L 21.834962844848633,16.09859848022461 L 21.7861385345459,15.298599243164062 L 21.723936080932617,14.498600006103516 L 21.662748336791992,13.698600769042969 L 21.594484329223633,12.898597717285156 L 21.513317108154297,12.09859848022461 L 21.415668487548828,11.298599243164062 L 21.29034423828125,10.498600006103516 L 21.200000762939453,10.107460021972656 L 21.10577392578125,9.698600769042969 L 20.96729278564453,8.898597717285156 L 20.84775161743164,8.09859848022461 L 20.7322940826416,7.2985992431640625 L 20.59883689880371,6.498600006103516 L 20.4206600189209,5.698600769042969 L 20.399999618530273,5.625232696533203 L 20.2232723236084,4.898597717285156 L 20.04920768737793,4.098598480224609 L 19.600000381469727,3.737384796142578 L 18.80000114440918,3.5976905822753906 L 18.435548782348633,4.098598480224609 L 18.45224952697754,4.898597717285156 L 18.641830444335938,5.698600769042969 L 18.80000114440918,6.259769439697266 L 18.871564865112305,6.498600006103516 L 19.060089111328125,7.2985992431640625 L 19.20475959777832,8.09859848022461 L 19.342267990112305,8.898597717285156 L 19.503135681152344,9.698600769042969 L 19.600000381469727,10.078853607177734 L 19.705318450927734,10.498600006103516 L 19.845294952392578,11.298599243164062 L 19.949718475341797,12.09859848022461 L 20.03763198852539,12.898597717285156 L 20.11451530456543,13.698600769042969 L 20.190677642822266,14.498600006103516 L 20.258424758911133,15.298599243164062 L 20.32363510131836,16.09859848022461 L 20.365461349487305,16.898597717285156 L 20.379480361938477,17.69860076904297 L 20.359594345092773,18.498600006103516 L 20.309358596801758,19.298599243164062 L 19.600000381469727,19.729778289794922 L 18.89267921447754,19.298599243164062 L 18.923776626586914,18.498600006103516 L 18.925630569458008,17.69860076904297 L 18.909263610839844,16.898597717285156 L 18.857789993286133,16.098602294921875 L 18.80000114440918,15.611827850341797 L 18.761810302734375,15.298599243164062 L 18.66573143005371,14.498600006103516 L 18.57023048400879,13.698600769042969 L 18.47504234313965,12.898597717285156 L 18.37363624572754,12.09859848022461 L 18.253522872924805,11.298599243164062 L 18.08783721923828,10.498600006103516 L 18.0,10.201526641845703 L 17.858583450317383,9.698600769042969 L 17.680688858032227,8.898597717285156 L 17.51108169555664,8.09859848022461 L 17.29145050048828,7.2985992431640625 L 17.200000762939453,7.054683685302734 L 17.004274368286133,6.498600006103516 L 16.777387619018555,5.698600769042969 L 16.399999618530273,5.404632568359375 L 15.600000381469727,5.301967620849609 L 14.873452186584473,5.698596954345703 L 15.167827606201172,6.498600006103516 L 15.427449226379395,7.2985992431640625 L 15.600000381469727,7.721736907958984 L 15.753232955932617,8.098602294921875 L 15.982017517089844,8.898597717285156 L 16.178701400756836,9.698600769042969 L 16.399999618530273,10.41500473022461 L 16.431068420410156,10.498600006103516 L 16.642194747924805,11.298599243164062 L 16.78456687927246,12.09859848022461 L 16.903566360473633,12.898597717285156 L 17.021167755126953,13.698600769042969 L 17.158449172973633,14.498600006103516 L 17.200000762939453,14.735496520996094 L 17.292232513427734,15.298599243164062 L 17.36800765991211,16.09859848022461 L 17.417001724243164,16.898597717285156 L 17.442846298217773,17.69860076904297 L 17.443296432495117,18.498600006103516 L 17.420072555541992,19.298599243164062 L 17.200000762939453,19.536823272705078 L 16.399999618530273,19.744903564453125 L 15.949299812316895,19.298599243164062 L 15.943081855773926,18.498600006103516 L 15.93229866027832,17.69860076904297 L 15.905165672302246,16.898597717285156 L 15.858053207397461,16.09859848022461 L 15.784547805786133,15.298599243164062 L 15.655627250671387,14.498600006103516 L 15.600000381469727,14.271053314208984 L 15.4722900390625,13.698600769042969 L 15.323234558105469,12.898597717285156 L 15.179447174072266,12.09859848022461 L 15.005868911743164,11.298603057861328 L 14.80000114440918,10.69842529296875 L 14.720826148986816,10.498600006103516 L 14.471612930297852,9.698600769042969 L 14.235877990722656,8.89859390258789 L 14.0,8.335838317871094 L 13.886916160583496,8.09859848022461 L 13.578672409057617,7.2985992431640625 L 13.19999885559082,6.535335540771484 L 12.399999618530273,6.889049530029297 L 11.600000381469727,7.242767333984375 L 11.578781127929688,7.2985992431640625 L 11.600000381469727,7.334968566894531 L 11.962150573730469,8.09859848022461 L 12.32875919342041,8.898597717285156 L 12.399999618530273,9.026912689208984 L 12.70443344116211,9.698596954345703 L 12.979116439819336,10.498600006103516 L 13.19999885559082,11.026470184326172 L 13.321269989013672,11.298599243164062 L 13.556329727172852,12.09859848022461 L 13.7322359085083,12.898597717285156 L 13.926311492919922,13.698600769042969 L 14.0,13.952709197998047 L 14.144164085388184,14.498600006103516 L 14.256576538085938,15.298599243164062 L 14.327751159667969,16.09859848022461 L 14.374610900878906,16.898597717285156 L 14.405296325683594,17.69860076904297 L 14.4176025390625,18.498600006103516 L 14.407552719116211,19.298599243164062 L 14.80000114440918,20.059139251708984 L 14.879220962524414,20.09859848022461 L 15.600000381469727,20.308940887451172 L 16.399999618530273,20.46982192993164 L 17.200000762939453,20.61730194091797 L 18.0,20.79840087890625 L 18.32956886291504,20.89859962463379 L 18.80000114440918,21.035791397094727 L 19.600000381469727,21.20311164855957 L 20.399999618530273,21.346914291381836 L 21.200000762939453,21.49802589416504 L 21.987720489501953,21.69860076904297 L 22.0,21.706600189208984 L 22.80000114440918,21.902923583984375 L 23.600000381469727,22.04436683654785 L 24.399999618530273,22.178319931030273 L 25.200002670288086,22.33089256286621 L 25.86028289794922,22.498600006103516 L 26.0,22.538795471191406 L 26.80000114440918,22.766023635864258 L 27.600000381469727,22.99415397644043 L 28.400001525878906,23.290599822998047 L 28.412656784057617,23.298599243164062 L 29.200000762939453,23.579896926879883 L 29.999998092651367,23.746173858642578 L 30.80000114440918,23.87966537475586 L 31.600000381469727,24.035858154296875 L 31.855512619018555,24.098600387573242 L 32.400001525878906,24.223220825195312 L 33.20000076293945,24.37660026550293 L 34.0,24.515581130981445 L 34.79999923706055,24.66688346862793 L 35.44988250732422,24.89859962463379" fill="none" stroke="#000000" stroke-width="0.06210252380371094"/>
</svg>
