<?xml version="1.0" ?>
<svg xmlns="http://www.w3.org/2000/svg" xmlns:ev="http://www.w3.org/2001/xml-events" xmlns:xlink="http://www.w3.org/1999/xlink" baseProfile="full" height="600px" version="1.1" viewBox="2.974705435 9.715851935000002 0.10334692999999982 3.615166129999998" width="18px">
	<defs/>
	<path d="M 2.9845719,10.01837 L 3.0681859,13.0285 L 2.9845719,10.01837" fill="none" stroke="#000000" stroke-width="0.0030101299999999984"/>
	<path d="M 3.0681859,13.0285 L 2.9845719,10.01837 L 3.0681859,13.0285" fill="none" stroke="#000000" stroke-width="0.0030101299999999984"/>
	<path d="M 2.9845719,10.01837 L 3.0681859,13.0285 L 2.9845719,10.01837" fill="none" stroke="#000000" stroke-width="0.0030101299999999984"/>
	<path d="M 3.0681859,13.0285 L 2.9845719,10.01837 L 3.0681859,13.0285" fill="none" stroke="#000000" stroke-width="0.0030101299999999984"/>
	<path d="M 2.9845719,10.01837 L 3.0681859,13.0285 L 2.9845719,10.01837" fill="none" stroke="#000000" stroke-width="0.0030101299999999984"/>
	<path d="M 3.0681859,13.0285 L 2.9845719,10.01837 L 3.0681859,13.0285" fill="none" stroke="#000000" stroke-width="0.0030101299999999984"/>
	<path d="M 2.9845719,10.01837 L 3.0681859,13.0285 L 2.9845719,10.01837" fill="none" stroke="#000000" stroke-width="0.0030101299999999984"/>
	<path d="M 3.0681859,13.0285 L 2.9845719,10.01837 L 3.0681859,13.0285" fill="none" stroke="#000000" stroke-width="0.0030101299999999984"/>
	<path d="M 2.9845719,10.01837 L 3.0681859,13.0285 L 2.9845719,10.01837" fill="none" stroke="#000000" stroke-width="0.0030101299999999984"/>
	<path d="M 3.0681859,13.0285 L 2.9845719,10.01837 L 3.0681859,13.0285" fill="none" stroke="#000000" stroke-width="0.0030101299999999984"/>
	<path d="M 2.9845719,10.01837 L 3.0681859,13.0285 L 2.9845719,10.01837" fill="none" stroke="#000000" stroke-width="0.0030101299999999984"/>
	<path d="M 3.0681859,13.0285 L 2.9845719,10.01837 L 3.0681859,13.0285" fill="none" stroke="#000000" stroke-width="0.0030101299999999984"/>
	<path d="M 2.9845719,10.01837 L 3.0681859,13.0285 L 2.9845719,10.01837" fill="none" stroke="#000000" stroke-width="0.0030101299999999984"/>
	<path d="M 3.0681859,13.0285 L 2.9845719,10.01837 L 3.0681859,13.0285" fill="none" stroke="#000000" stroke-width="0.0030101299999999984"/>
	<path d="M 2.9845719,10.01837 L 3.0681859,13.0285 L 2.9845719,10.01837" fill="none" stroke="#000000" stroke-width="0.0030101299999999984"/>
	<path d="M 3.0681859,13.0285 L 2.9845719,10.01837 L 3.0681859,13.0285" fill="none" stroke="#000000" stroke-width="0.0030101299999999984"/>
	<path d="M 2.9845719,10.01837 L 3.0681859,13.0285 L 2.9845719,10.01837" fill="none" stroke="#000000" stroke-width="0.0030101299999999984"/>
</svg>
