<?xml version="1.0" ?>
<svg xmlns="http://www.w3.org/2000/svg" xmlns:ev="http://www.w3.org/2001/xml-events" xmlns:xlink="http://www.w3.org/1999/xlink" baseProfile="full" height="600px" version="1.1" viewBox="-0.37416475502500013 -1.274698555025 11.925051460050001 15.609397060049998" width="459px">
	<defs/>
	<path d="M 3.0681859,13.0285 L 7.499773899999999,13.0285 L 3.0681859,13.0285" fill="none" stroke="#000000" stroke-width="0.012997000049999999"/>
	<path d="M 2.9845718999999997,10.01837 L 3.0681859,13.0285 L 2.9845718999999997,10.01837" fill="none" stroke="#000000" stroke-width="0.012997000049999999"/>
	<path d="M 0.62500495,6.8409999 L 2.9845718999999997,10.01837 L 0.62500495,6.8409999" fill="none" stroke="#000000" stroke-width="0.012997000049999999"/>
	<path d="M 0.62500495,2.5582899 L 0.62500495,6.8409999 L 0.62500495,2.5582899" fill="none" stroke="#000000" stroke-width="0.012997000049999999"/>
	<path d="M 3.1518019,0.03149995 L 0.62500495,2.5582899 L 3.1518019,0.03149995" fill="none" stroke="#000000" stroke-width="0.012997000049999999"/>
	<path d="M 7.446817900000001,0.03149995 L 3.1518019,0.03149995 L 7.446817900000001,0.03149995" fill="none" stroke="#000000" stroke-width="0.012997000049999999"/>
	<path d="M 10.551717,1.8241099 L 7.446817900000001,0.03149995 L 10.551717,1.8241099" fill="none" stroke="#000000" stroke-width="0.012997000049999999"/>
	<path d="M 10.551717,7.1336499 L 10.551717,1.8241099 L 10.551717,7.1336499" fill="none" stroke="#000000" stroke-width="0.012997000049999999"/>
	<path d="M 7.6670039,10.01837 L 10.551717,7.1336499 L 7.6670039,10.01837" fill="none" stroke="#000000" stroke-width="0.012997000049999999"/>
	<path d="M 7.499773899999999,13.0285 L 7.6670039,10.01837 L 7.499773899999999,13.0285" fill="none" stroke="#000000" stroke-width="0.012997000049999999"/>
</svg>
