<?xml version="1.0" ?>
<svg xmlns="http://www.w3.org/2000/svg" xmlns:ev="http://www.w3.org/2001/xml-events" xmlns:xlink="http://www.w3.org/1999/xlink" baseProfile="full" height="600px" version="1.1" viewBox="-0.27375732999999997 12.709174314999999 3.64720051 3.816021370000002" width="574px">
	<defs/>
	<path d="M 0.03149995,16.20587 L 3.0681859,13.0285 L 0.03149995,16.20587" fill="none" stroke="#000000" stroke-width="0.003177370000000002"/>
	<path d="M 3.0681859,13.0285 L 0.03149995,16.20587 L 3.0681859,13.0285" fill="none" stroke="#000000" stroke-width="0.003177370000000002"/>
	<path d="M 0.03149995,16.20587 L 3.0681859,13.0285 L 0.03149995,16.20587" fill="none" stroke="#000000" stroke-width="0.003177370000000002"/>
	<path d="M 3.0681859,13.0285 L 0.03149995,16.20587 L 3.0681859,13.0285" fill="none" stroke="#000000" stroke-width="0.003177370000000002"/>
	<path d="M 0.03149995,16.20587 L 3.0681859,13.0285 L 0.03149995,16.20587" fill="none" stroke="#000000" stroke-width="0.003177370000000002"/>
	<path d="M 3.0681859,13.0285 L 0.03149995,16.20587 L 3.0681859,13.0285" fill="none" stroke="#000000" stroke-width="0.003177370000000002"/>
	<path d="M 0.03149995,16.20587 L 3.0681859,13.0285 L 0.03149995,16.20587" fill="none" stroke="#000000" stroke-width="0.003177370000000002"/>
	<path d="M 3.0681859,13.0285 L 0.03149995,16.20587 L 3.0681859,13.0285" fill="none" stroke="#000000" stroke-width="0.003177370000000002"/>
	<path d="M 0.03149995,16.20587 L 3.0681859,13.0285 L 0.03149995,16.20587" fill="none" stroke="#000000" stroke-width="0.003177370000000002"/>
	<path d="M 3.0681859,13.0285 L 0.03149995,16.20587 L 3.0681859,13.0285" fill="none" stroke="#000000" stroke-width="0.003177370000000002"/>
	<path d="M 0.03149995,16.20587 L 3.0681859,13.0285 L 0.03149995,16.20587" fill="none" stroke="#000000" stroke-width="0.003177370000000002"/>
	<path d="M 3.0681859,13.0285 L 0.03149995,16.20587 L 3.0681859,13.0285" fill="none" stroke="#000000" stroke-width="0.003177370000000002"/>
	<path d="M 0.03149995,16.20587 L 3.0681859,13.0285 L 0.03149995,16.20587" fill="none" stroke="#000000" stroke-width="0.003177370000000002"/>
	<path d="M 3.0681859,13.0285 L 0.03149995,16.20587 L 3.0681859,13.0285" fill="none" stroke="#000000" stroke-width="0.003177370000000002"/>
	<path d="M 0.03149995,16.20587 L 3.0681859,13.0285 L 0.03149995,16.20587" fill="none" stroke="#000000" stroke-width="0.003177370000000002"/>
	<path d="M 3.0681859,13.0285 L 0.03149995,16.20587 L 3.0681859,13.0285" fill="none" stroke="#000000" stroke-width="0.003177370000000002"/>
	<path d="M 0.03149995,16.20587 L 3.0681859,13.0285 L 0.03149995,16.20587" fill="none" stroke="#000000" stroke-width="0.003177370000000002"/>
</svg>
