<?xml version="1.0" ?>
<svg xmlns="http://www.w3.org/2000/svg" xmlns:ev="http://www.w3.org/2001/xml-events" xmlns:xlink="http://www.w3.org/1999/xlink" baseProfile="full" height="600px" version="1.1" viewBox="35.930279504776 29.153824197769165 17.051283336639404 17.27215888595581" width="593px">
	<defs/>
	<path d="M 47.924652099609375,34.498600006103516 L 47.107948303222656,36.898597717285156 L 47.924652099609375,34.498600006103516" fill="none" stroke="#000000" stroke-width="0.014381481170654298"/>
	<path d="M 47.930702209472656,33.69860076904297 L 47.924652099609375,34.498600006103516 L 47.930702209472656,33.69860076904297" fill="none" stroke="#000000" stroke-width="0.014381481170654298"/>
	<path d="M 47.76411437988281,32.898597717285156 L 47.930702209472656,33.69860076904297 L 47.76411437988281,32.898597717285156" fill="none" stroke="#000000" stroke-width="0.014381481170654298"/>
	<path d="M 47.60000228881836,32.718544006347656 L 47.76411437988281,32.898597717285156 L 47.60000228881836,32.718544006347656" fill="none" stroke="#000000" stroke-width="0.014381481170654298"/>
	<path d="M 46.79999923706055,32.34123229980469 L 47.60000228881836,32.718544006347656 L 46.79999923706055,32.34123229980469" fill="none" stroke="#000000" stroke-width="0.014381481170654298"/>
	<path d="M 46.0,32.68211364746094 L 46.79999923706055,32.34123229980469 L 46.0,32.68211364746094" fill="none" stroke="#000000" stroke-width="0.014381481170654298"/>
	<path d="M 45.341121673583984,32.098602294921875 L 46.0,32.68211364746094 L 45.341121673583984,32.098602294921875" fill="none" stroke="#000000" stroke-width="0.014381481170654298"/>
	<path d="M 45.319602966308594,31.298599243164062 L 45.341121673583984,32.098602294921875 L 45.319602966308594,31.298599243164062" fill="none" stroke="#000000" stroke-width="0.014381481170654298"/>
	<path d="M 45.20000076293945,31.094314575195312 L 45.319602966308594,31.298599243164062 L 45.20000076293945,31.094314575195312" fill="none" stroke="#000000" stroke-width="0.014381481170654298"/>
	<path d="M 44.400001525878906,30.599163055419922 L 45.20000076293945,31.094314575195312 L 44.400001525878906,30.599163055419922" fill="none" stroke="#000000" stroke-width="0.014381481170654298"/>
	<path d="M 43.599998474121094,31.16016960144043 L 44.400001525878906,30.599163055419922 L 43.599998474121094,31.16016960144043" fill="none" stroke="#000000" stroke-width="0.014381481170654298"/>
	<path d="M 43.19414520263672,31.298599243164062 L 43.599998474121094,31.16016960144043 L 43.19414520263672,31.298599243164062" fill="none" stroke="#000000" stroke-width="0.014381481170654298"/>
	<path d="M 42.79999923706055,31.427236557006836 L 43.19414520263672,31.298599243164062 L 42.79999923706055,31.427236557006836" fill="none" stroke="#000000" stroke-width="0.014381481170654298"/>
	<path d="M 42.0,31.591463088989258 L 42.79999923706055,31.427236557006836 L 42.0,31.591463088989258" fill="none" stroke="#000000" stroke-width="0.014381481170654298"/>
	<path d="M 41.652862548828125,32.098602294921875 L 42.0,31.591463088989258 L 41.652862548828125,32.098602294921875" fill="none" stroke="#000000" stroke-width="0.014381481170654298"/>
	<path d="M 41.457828521728516,32.898597717285156 L 41.652862548828125,32.098602294921875 L 41.457828521728516,32.898597717285156" fill="none" stroke="#000000" stroke-width="0.014381481170654298"/>
	<path d="M 41.20000076293945,33.26557922363281 L 41.457828521728516,32.898597717285156 L 41.20000076293945,33.26557922363281" fill="none" stroke="#000000" stroke-width="0.014381481170654298"/>
	<path d="M 40.88288116455078,32.898597717285156 L 41.20000076293945,33.26557922363281 L 40.88288116455078,32.898597717285156" fill="none" stroke="#000000" stroke-width="0.014381481170654298"/>
	<path d="M 40.400001525878906,32.56441879272461 L 40.88288116455078,32.898597717285156 L 40.400001525878906,32.56441879272461" fill="none" stroke="#000000" stroke-width="0.014381481170654298"/>
	<path d="M 39.60000228881836,32.50679016113281 L 40.400001525878906,32.56441879272461 L 39.60000228881836,32.50679016113281" fill="none" stroke="#000000" stroke-width="0.014381481170654298"/>
	<path d="M 39.23413848876953,32.898597717285156 L 39.60000228881836,32.50679016113281 L 39.23413848876953,32.898597717285156" fill="none" stroke="#000000" stroke-width="0.014381481170654298"/>
	<path d="M 39.222068786621094,33.69860076904297 L 39.23413848876953,32.898597717285156 L 39.222068786621094,33.69860076904297" fill="none" stroke="#000000" stroke-width="0.014381481170654298"/>
	<path d="M 38.989192962646484,34.498600006103516 L 39.222068786621094,33.69860076904297 L 38.989192962646484,34.498600006103516" fill="none" stroke="#000000" stroke-width="0.014381481170654298"/>
	<path d="M 38.79999923706055,34.55058670043945 L 38.989192962646484,34.498600006103516 L 38.79999923706055,34.55058670043945" fill="none" stroke="#000000" stroke-width="0.014381481170654298"/>
	<path d="M 38.1992301940918,34.498600006103516 L 38.79999923706055,34.55058670043945 L 38.1992301940918,34.498600006103516" fill="none" stroke="#000000" stroke-width="0.014381481170654298"/>
	<path d="M 38.0,34.483367919921875 L 38.1992301940918,34.498600006103516 L 38.0,34.483367919921875" fill="none" stroke="#000000" stroke-width="0.014381481170654298"/>
	<path d="M 37.98127746582031,34.498600006103516 L 38.0,34.483367919921875 L 37.98127746582031,34.498600006103516" fill="none" stroke="#000000" stroke-width="0.014381481170654298"/>
	<path d="M 37.4156608581543,35.29859924316406 L 37.98127746582031,34.498600006103516 L 37.4156608581543,35.29859924316406" fill="none" stroke="#000000" stroke-width="0.014381481170654298"/>
	<path d="M 37.448612213134766,36.098602294921875 L 37.4156608581543,35.29859924316406 L 37.448612213134766,36.098602294921875" fill="none" stroke="#000000" stroke-width="0.014381481170654298"/>
	<path d="M 38.0,36.88548278808594 L 37.448612213134766,36.098602294921875 L 38.0,36.88548278808594" fill="none" stroke="#000000" stroke-width="0.014381481170654298"/>
	<path d="M 38.019195556640625,36.898597717285156 L 38.0,36.88548278808594 L 38.019195556640625,36.898597717285156" fill="none" stroke="#000000" stroke-width="0.014381481170654298"/>
	<path d="M 38.0,36.96347427368164 L 38.019195556640625,36.898597717285156 L 38.0,36.96347427368164" fill="none" stroke="#000000" stroke-width="0.014381481170654298"/>
	<path d="M 37.85866165161133,37.69860076904297 L 38.0,36.96347427368164 L 37.85866165161133,37.69860076904297" fill="none" stroke="#000000" stroke-width="0.014381481170654298"/>
	<path d="M 37.35721206665039,38.498600006103516 L 37.85866165161133,37.69860076904297 L 37.35721206665039,38.498600006103516" fill="none" stroke="#000000" stroke-width="0.014381481170654298"/>
	<path d="M 37.62702941894531,39.29859924316406 L 37.35721206665039,38.498600006103516 L 37.62702941894531,39.29859924316406" fill="none" stroke="#000000" stroke-width="0.014381481170654298"/>
	<path d="M 37.864498138427734,40.098602294921875 L 37.62702941894531,39.29859924316406 L 37.864498138427734,40.098602294921875" fill="none" stroke="#000000" stroke-width="0.014381481170654298"/>
	<path d="M 38.0,40.532474517822266 L 37.864498138427734,40.098602294921875 L 38.0,40.532474517822266" fill="none" stroke="#000000" stroke-width="0.014381481170654298"/>
	<path d="M 38.13227081298828,40.898597717285156 L 38.0,40.532474517822266 L 38.13227081298828,40.898597717285156" fill="none" stroke="#000000" stroke-width="0.014381481170654298"/>
	<path d="M 38.67346954345703,41.69860076904297 L 38.13227081298828,40.898597717285156 L 38.67346954345703,41.69860076904297" fill="none" stroke="#000000" stroke-width="0.014381481170654298"/>
	<path d="M 38.79999923706055,41.84776306152344 L 38.67346954345703,41.69860076904297 L 38.79999923706055,41.84776306152344" fill="none" stroke="#000000" stroke-width="0.014381481170654298"/>
	<path d="M 39.49640655517578,42.498600006103516 L 38.79999923706055,41.84776306152344 L 39.49640655517578,42.498600006103516" fill="none" stroke="#000000" stroke-width="0.014381481170654298"/>
	<path d="M 39.60000228881836,42.56507110595703 L 39.49640655517578,42.498600006103516 L 39.60000228881836,42.56507110595703" fill="none" stroke="#000000" stroke-width="0.014381481170654298"/>
	<path d="M 40.400001525878906,42.78826904296875 L 39.60000228881836,42.56507110595703 L 40.400001525878906,42.78826904296875" fill="none" stroke="#000000" stroke-width="0.014381481170654298"/>
	<path d="M 40.913673400878906,43.29859924316406 L 40.400001525878906,42.78826904296875 L 40.913673400878906,43.29859924316406" fill="none" stroke="#000000" stroke-width="0.014381481170654298"/>
	<path d="M 41.20000076293945,43.44559097290039 L 40.913673400878906,43.29859924316406 L 41.20000076293945,43.44559097290039" fill="none" stroke="#000000" stroke-width="0.014381481170654298"/>
	<path d="M 41.618385314941406,43.29859924316406 L 41.20000076293945,43.44559097290039 L 41.618385314941406,43.29859924316406" fill="none" stroke="#000000" stroke-width="0.014381481170654298"/>
	<path d="M 42.0,43.08302307128906 L 41.618385314941406,43.29859924316406 L 42.0,43.08302307128906" fill="none" stroke="#000000" stroke-width="0.014381481170654298"/>
	<path d="M 42.79999923706055,42.7160530090332 L 42.0,43.08302307128906 L 42.79999923706055,42.7160530090332" fill="none" stroke="#000000" stroke-width="0.014381481170654298"/>
	<path d="M 43.18116760253906,43.29859924316406 L 42.79999923706055,42.7160530090332 L 43.18116760253906,43.29859924316406" fill="none" stroke="#000000" stroke-width="0.014381481170654298"/>
	<path d="M 43.5859375,44.098602294921875 L 43.18116760253906,43.29859924316406 L 43.5859375,44.098602294921875" fill="none" stroke="#000000" stroke-width="0.014381481170654298"/>
	<path d="M 43.60000228881836,44.118408203125 L 43.5859375,44.098602294921875 L 43.60000228881836,44.118408203125" fill="none" stroke="#000000" stroke-width="0.014381481170654298"/>
	<path d="M 44.30098342895508,44.898597717285156 L 43.60000228881836,44.118408203125 L 44.30098342895508,44.898597717285156" fill="none" stroke="#000000" stroke-width="0.014381481170654298"/>
	<path d="M 44.400001525878906,44.970680236816406 L 44.30098342895508,44.898597717285156 L 44.400001525878906,44.970680236816406" fill="none" stroke="#000000" stroke-width="0.014381481170654298"/>
	<path d="M 45.20000076293945,44.98064422607422 L 44.400001525878906,44.970680236816406 L 45.20000076293945,44.98064422607422" fill="none" stroke="#000000" stroke-width="0.014381481170654298"/>
	<path d="M 45.30618667602539,44.898597717285156 L 45.20000076293945,44.98064422607422 L 45.30618667602539,44.898597717285156" fill="none" stroke="#000000" stroke-width="0.014381481170654298"/>
	<path d="M 45.860618591308594,44.098602294921875 L 45.30618667602539,44.898597717285156 L 45.860618591308594,44.098602294921875" fill="none" stroke="#000000" stroke-width="0.014381481170654298"/>
	<path d="M 46.0,43.3917236328125 L 45.860618591308594,44.098602294921875 L 46.0,43.3917236328125" fill="none" stroke="#000000" stroke-width="0.014381481170654298"/>
	<path d="M 46.79999923706055,43.49810028076172 L 46.0,43.3917236328125 L 46.79999923706055,43.49810028076172" fill="none" stroke="#000000" stroke-width="0.014381481170654298"/>
	<path d="M 47.44032287597656,44.098602294921875 L 46.79999923706055,43.49810028076172 L 47.44032287597656,44.098602294921875" fill="none" stroke="#000000" stroke-width="0.014381481170654298"/>
	<path d="M 47.60000228881836,44.255348205566406 L 47.44032287597656,44.098602294921875 L 47.60000228881836,44.255348205566406" fill="none" stroke="#000000" stroke-width="0.014381481170654298"/>
	<path d="M 48.400001525878906,44.697879791259766 L 47.60000228881836,44.255348205566406 L 48.400001525878906,44.697879791259766" fill="none" stroke="#000000" stroke-width="0.014381481170654298"/>
	<path d="M 49.20000076293945,44.49824905395508 L 48.400001525878906,44.697879791259766 L 49.20000076293945,44.49824905395508" fill="none" stroke="#000000" stroke-width="0.014381481170654298"/>
	<path d="M 49.55332946777344,44.098602294921875 L 49.20000076293945,44.49824905395508 L 49.55332946777344,44.098602294921875" fill="none" stroke="#000000" stroke-width="0.014381481170654298"/>
	<path d="M 49.59634780883789,43.29859924316406 L 49.55332946777344,44.098602294921875 L 49.59634780883789,43.29859924316406" fill="none" stroke="#000000" stroke-width="0.014381481170654298"/>
	<path d="M 49.3740119934082,42.498600006103516 L 49.59634780883789,43.29859924316406 L 49.3740119934082,42.498600006103516" fill="none" stroke="#000000" stroke-width="0.014381481170654298"/>
	<path d="M 50.0,41.766536712646484 L 49.3740119934082,42.498600006103516 L 50.0,41.766536712646484" fill="none" stroke="#000000" stroke-width="0.014381481170654298"/>
	<path d="M 50.11741638183594,41.69860076904297 L 50.0,41.766536712646484 L 50.11741638183594,41.69860076904297" fill="none" stroke="#000000" stroke-width="0.014381481170654298"/>
	<path d="M 50.79999923706055,41.348480224609375 L 50.11741638183594,41.69860076904297 L 50.79999923706055,41.348480224609375" fill="none" stroke="#000000" stroke-width="0.014381481170654298"/>
	<path d="M 51.3299560546875,40.898597717285156 L 50.79999923706055,41.348480224609375 L 51.3299560546875,40.898597717285156" fill="none" stroke="#000000" stroke-width="0.014381481170654298"/>
	<path d="M 51.554630279541016,40.098602294921875 L 51.3299560546875,40.898597717285156 L 51.554630279541016,40.098602294921875" fill="none" stroke="#000000" stroke-width="0.014381481170654298"/>
	<path d="M 50.83914566040039,39.29859924316406 L 51.554630279541016,40.098602294921875 L 50.83914566040039,39.29859924316406" fill="none" stroke="#000000" stroke-width="0.014381481170654298"/>
	<path d="M 50.93849182128906,38.498600006103516 L 50.83914566040039,39.29859924316406 L 50.93849182128906,38.498600006103516" fill="none" stroke="#000000" stroke-width="0.014381481170654298"/>
	<path d="M 50.98080062866211,37.69860076904297 L 50.93849182128906,38.498600006103516 L 50.98080062866211,37.69860076904297" fill="none" stroke="#000000" stroke-width="0.014381481170654298"/>
	<path d="M 50.79999542236328,37.442508697509766 L 50.98080062866211,37.69860076904297 L 50.79999542236328,37.442508697509766" fill="none" stroke="#000000" stroke-width="0.014381481170654298"/>
	<path d="M 50.0,37.01945114135742 L 50.79999542236328,37.442508697509766 L 50.0,37.01945114135742" fill="none" stroke="#000000" stroke-width="0.014381481170654298"/>
	<path d="M 49.87461853027344,36.898597717285156 L 50.0,37.01945114135742 L 49.87461853027344,36.898597717285156" fill="none" stroke="#000000" stroke-width="0.014381481170654298"/>
	<path d="M 50.0,36.41981506347656 L 49.87461853027344,36.898597717285156 L 50.0,36.41981506347656" fill="none" stroke="#000000" stroke-width="0.014381481170654298"/>
	<path d="M 50.07604217529297,36.098602294921875 L 50.0,36.41981506347656 L 50.07604217529297,36.098602294921875" fill="none" stroke="#000000" stroke-width="0.014381481170654298"/>
	<path d="M 50.0,35.933807373046875 L 50.07604217529297,36.098602294921875 L 50.0,35.933807373046875" fill="none" stroke="#000000" stroke-width="0.014381481170654298"/>
	<path d="M 49.60078430175781,35.29859924316406 L 50.0,35.933807373046875 L 49.60078430175781,35.29859924316406" fill="none" stroke="#000000" stroke-width="0.014381481170654298"/>
	<path d="M 49.20000457763672,35.02709197998047 L 49.60078430175781,35.29859924316406 L 49.20000457763672,35.02709197998047" fill="none" stroke="#000000" stroke-width="0.014381481170654298"/>
	<path d="M 48.400001525878906,35.13485336303711 L 49.20000457763672,35.02709197998047 L 48.400001525878906,35.13485336303711" fill="none" stroke="#000000" stroke-width="0.014381481170654298"/>
	<path d="M 46.79999923706055,36.51509475708008 L 48.400001525878906,35.13485336303711 L 46.79999923706055,36.51509475708008" fill="none" stroke="#000000" stroke-width="0.014381481170654298"/>
	<path d="M 46.469322204589844,36.898597717285156 L 46.79999923706055,36.51509475708008 L 46.469322204589844,36.898597717285156" fill="none" stroke="#000000" stroke-width="0.014381481170654298"/>
	<path d="M 46.79999923706055,37.21836853027344 L 46.469322204589844,36.898597717285156 L 46.79999923706055,37.21836853027344" fill="none" stroke="#000000" stroke-width="0.014381481170654298"/>
	<path d="M 47.107948303222656,36.898597717285156 L 46.79999923706055,37.21836853027344 L 47.107948303222656,36.898597717285156" fill="none" stroke="#000000" stroke-width="0.014381481170654298"/>
	<path d="M 47.924652099609375,34.498600006103516 L 47.107948303222656,36.898597717285156 L 47.924652099609375,34.498600006103516" fill="none" stroke="#000000" stroke-width="0.014381481170654298"/>
</svg>
