<?xml version="1.0" ?>
<svg xmlns="http://www.w3.org/2000/svg" xmlns:ev="http://www.w3.org/2001/xml-events" xmlns:xlink="http://www.w3.org/1999/xlink" baseProfile="full" height="600px" version="1.1" viewBox="-1.030920140025 -2.058575440025 12.64505723005 24.97692083005" width="304px">
	<defs/>
	<path d="M 0.03149995,20.82827 L 0.03149995,16.20587 L 0.03149995,20.82827" fill="none" stroke="#000000" stroke-width="0.02079677005"/>
	<path d="M 7.667003900000001,10.01837 L 0.03149995,20.82827 L 7.667003900000001,10.01837" fill="none" stroke="#000000" stroke-width="0.02079677005"/>
	<path d="M 10.551717,7.1336499 L 7.667003900000001,10.01837 L 10.551717,7.1336499" fill="none" stroke="#000000" stroke-width="0.02079677005"/>
	<path d="M 10.551717,1.8241098999999998 L 10.551717,7.1336499 L 10.551717,1.8241098999999998" fill="none" stroke="#000000" stroke-width="0.02079677005"/>
	<path d="M 7.4468179,0.03149995 L 10.551717,1.8241098999999998 L 7.4468179,0.03149995" fill="none" stroke="#000000" stroke-width="0.02079677005"/>
	<path d="M 3.1518019,0.03149995 L 7.4468179,0.03149995 L 3.1518019,0.03149995" fill="none" stroke="#000000" stroke-width="0.02079677005"/>
	<path d="M 0.62500495,2.5582899 L 3.1518019,0.03149995 L 0.62500495,2.5582899" fill="none" stroke="#000000" stroke-width="0.02079677005"/>
	<path d="M 0.62500495,6.8409999 L 0.62500495,2.5582899 L 0.62500495,6.8409999" fill="none" stroke="#000000" stroke-width="0.02079677005"/>
	<path d="M 2.9845719,10.01837 L 0.62500495,6.8409999 L 2.9845719,10.01837" fill="none" stroke="#000000" stroke-width="0.02079677005"/>
	<path d="M 0.03149995,16.20587 L 2.9845719,10.01837 L 0.03149995,16.20587" fill="none" stroke="#000000" stroke-width="0.02079677005"/>
	<path d="M 0.03149995,20.82827 L 0.03149995,16.20587 L 0.03149995,20.82827" fill="none" stroke="#000000" stroke-width="0.02079677005"/>
	<path d="M 7.667003900000001,10.01837 L 0.03149995,20.82827 L 7.667003900000001,10.01837" fill="none" stroke="#000000" stroke-width="0.02079677005"/>
	<path d="M 10.551717,7.1336499 L 7.667003900000001,10.01837 L 10.551717,7.1336499" fill="none" stroke="#000000" stroke-width="0.02079677005"/>
	<path d="M 10.551717,1.8241098999999998 L 10.551717,7.1336499 L 10.551717,1.8241098999999998" fill="none" stroke="#000000" stroke-width="0.02079677005"/>
	<path d="M 7.4468179,0.03149995 L 10.551717,1.8241098999999998 L 7.4468179,0.03149995" fill="none" stroke="#000000" stroke-width="0.02079677005"/>
	<path d="M 3.1518019,0.03149995 L 7.4468179,0.03149995 L 3.1518019,0.03149995" fill="none" stroke="#000000" stroke-width="0.02079677005"/>
	<path d="M 0.62500495,2.5582899 L 3.1518019,0.03149995 L 0.62500495,2.5582899" fill="none" stroke="#000000" stroke-width="0.02079677005"/>
</svg>
